# This file uses centimeters as units for non-parametric coordinates.

mtllib OutsideBend_LP.mtl
g default
v 0.308397 0.000000 -3.054502
v 0.677812 0.000000 -2.700949
v 1.044956 0.000000 -2.347396
v 0.306394 1.000000 -3.054502
v 0.675279 1.000000 -2.700949
v 1.044956 0.500000 -2.347396
v 3.500000 1.000000 -4.319719
v 3.500000 1.000000 -3.819719
v 3.500000 0.500000 -3.319719
v 3.500000 0.000000 -4.319719
v 3.500000 0.000000 -3.819719
v 3.500000 0.000000 -3.319719
v -0.990729 0.000000 0.000000
v -0.490729 0.000000 0.000000
v 0.009271 0.000000 0.000000
v -0.990729 1.000000 0.000000
v -0.490729 1.000000 0.000000
v 0.009271 0.500000 0.000000
v -0.661910 1.000000 -1.653085
v -0.661910 0.000000 -1.653085
v -0.197372 0.000000 -1.461743
v 0.271107 0.000000 -1.270401
v 0.271107 0.500000 -1.270401
v -0.197828 1.000000 -1.461743
v 1.793757 1.000000 -3.990901
v 1.994954 1.000000 -3.528960
v 2.196727 0.500000 -3.067020
v 2.196727 0.000000 -3.067020
v 1.995718 0.000000 -3.528961
v 1.793757 0.000000 -3.990901
v -0.907727 1.000000 -0.842735
v -0.417334 1.000000 -0.745190
v 0.073354 0.500000 -0.647645
v 0.073354 0.000000 -0.647645
v -0.417334 0.000000 -0.745190
v -0.907727 0.000000 -0.842735
v 1.000443 1.000000 -3.591715
v 1.292395 1.000000 -3.175980
v 1.586372 0.500000 -2.760245
v 1.586372 0.000000 -2.760245
v 1.296054 0.000000 -3.175982
v 1.000443 0.000000 -3.591715
v -0.254114 0.000000 -2.399907
v 0.172151 0.000000 -2.122122
v 0.599520 0.000000 -1.844337
v 0.599520 0.500000 -1.844337
v 0.170727 1.000000 -2.122122
v -0.255010 1.000000 -2.399907
v 2.644173 0.000000 -4.236716
v 2.745105 0.000000 -3.746324
v 2.845661 0.000000 -3.255932
v 2.845661 0.500000 -3.255932
v 2.745105 1.000000 -3.746324
v 2.644173 1.000000 -4.236716
v -0.969928 1.000000 -0.423406
v -0.472336 1.000000 -0.374398
v 0.025256 0.500000 -0.325389
v 0.025256 0.000000 -0.325389
v -0.472336 0.000000 -0.374398
v -0.969928 0.000000 -0.423406
v -0.804723 0.000000 -1.253948
v -0.326253 0.000000 -1.108806
v 0.155346 0.000000 -0.963663
v 0.155346 0.500000 -0.963663
v -0.326253 1.000000 -1.108806
v -0.804723 1.000000 -1.253948
v -0.478938 1.000000 -2.036301
v -0.031667 1.000000 -1.800603
v 0.419653 0.500000 -1.564905
v 0.419653 0.000000 -1.564905
v -0.030751 0.000000 -1.800603
v -0.478520 0.000000 -2.036301
v 0.009149 0.000000 -2.740401
v 0.409233 0.000000 -2.423204
v 0.808762 0.000000 -2.106007
v 0.808762 0.500000 -2.106007
v 0.407265 1.000000 -2.423204
v 0.007717 1.000000 -2.740401
v 0.637718 1.000000 -3.339188
v 0.971556 1.000000 -2.952682
v 1.305242 0.500000 -2.566177
v 1.305242 0.000000 -2.566177
v 0.974660 0.000000 -2.952683
v 0.640108 0.000000 -3.339187
v 1.884790 0.000000 -2.927730
v 1.884790 0.500000 -2.927730
v 1.634506 1.000000 -3.368692
v 1.387587 1.000000 -3.809653
v 1.387587 0.000000 -3.809653
v 1.637875 0.000000 -3.368690
v 2.214578 1.000000 -4.133713
v 2.366781 1.000000 -3.655242
v 2.518308 0.500000 -3.176771
v 2.518308 0.000000 -3.176771
v 2.366781 0.000000 -3.655242
v 2.214578 0.000000 -4.133713
v 3.075342 0.000000 -4.298917
v 3.125236 0.000000 -3.801324
v 3.175024 0.000000 -3.303733
v 3.175024 0.500000 -3.303733
v 3.125236 1.000000 -3.801324
v 3.075342 1.000000 -4.298917
vt 0.372452 0.524521
vt 0.372452 0.091911
vt 0.444553 0.091911
vt 0.444553 0.524521
vt 0.516655 0.524521
vt 0.516655 0.091911
vt 0.735075 0.091911
vt 0.735075 0.524521
vt 0.590872 0.524521
vt 0.590872 0.091911
vt 0.591614 0.524521
vt 0.519513 0.524521
vt 0.519513 0.091911
vt 0.591614 0.091911
vt 0.877793 0.524521
vt 0.805692 0.524521
vt 0.805692 0.091911
vt 0.877793 0.091911
vt 0.733590 0.524521
vt 0.733590 0.091911
vt 0.370216 0.238749
vt 0.298115 0.238749
vt 0.298115 0.094546
vt 0.370216 0.094546
vt 0.226013 0.166647
vt 0.226013 0.094546
vt 0.369321 0.548092
vt 0.369321 0.620194
vt 0.225118 0.620194
vt 0.225118 0.548092
vt 0.369321 0.692295
vt 0.297219 0.692295
vt 0.591614 0.978067
vt 0.519513 0.978067
vt 0.519513 0.545458
vt 0.591614 0.545458
vt 0.516655 0.978067
vt 0.444553 0.978067
vt 0.444553 0.545458
vt 0.516655 0.545458
vt 0.877793 0.978067
vt 0.805692 0.978067
vt 0.805692 0.545458
vt 0.877793 0.545458
vt 0.733590 0.978067
vt 0.733590 0.545458
vt 0.372452 0.978067
vt 0.372452 0.545458
vt 0.735075 0.545458
vt 0.735075 0.978067
vt 0.590872 0.978067
vt 0.590872 0.545458
vt 0.590872 0.761763
vt 0.591614 0.761763
vt 0.735075 0.761763
vt 0.877793 0.761763
vt 0.805692 0.761763
vt 0.733590 0.761763
vt 0.372452 0.761763
vt 0.444553 0.761763
vt 0.519513 0.761763
vt 0.516655 0.761763
vt 0.590872 0.308216
vt 0.591614 0.308216
vt 0.519513 0.308216
vt 0.516655 0.308216
vt 0.444553 0.308216
vt 0.733590 0.308216
vt 0.372452 0.308216
vt 0.805692 0.308216
vt 0.735075 0.308216
vt 0.877793 0.308216
vt 0.590872 0.869915
vt 0.591614 0.869915
vt 0.519513 0.869915
vt 0.516655 0.869915
vt 0.444553 0.869915
vt 0.733590 0.653610
vt 0.372452 0.869915
vt 0.805692 0.653610
vt 0.735075 0.869915
vt 0.877793 0.653610
vt 0.590872 0.416368
vt 0.591614 0.416368
vt 0.519513 0.416368
vt 0.516655 0.416368
vt 0.444553 0.416368
vt 0.733590 0.200064
vt 0.372452 0.416368
vt 0.805692 0.200064
vt 0.735075 0.416368
vt 0.877793 0.200064
vt 0.735075 0.653610
vt 0.877793 0.869915
vt 0.805692 0.869915
vt 0.733590 0.869915
vt 0.372452 0.653610
vt 0.444553 0.653610
vt 0.519513 0.653610
vt 0.516655 0.653610
vt 0.590872 0.653610
vt 0.591614 0.653610
vt 0.735075 0.200064
vt 0.877793 0.416368
vt 0.805692 0.416368
vt 0.733590 0.416368
vt 0.372452 0.200064
vt 0.444553 0.200064
vt 0.519513 0.200064
vt 0.516655 0.200064
vt 0.590872 0.200064
vt 0.591614 0.200064
vt 0.590872 0.923991
vt 0.591614 0.923991
vt 0.519513 0.923991
vt 0.516655 0.923991
vt 0.444553 0.923991
vt 0.733590 0.599534
vt 0.372452 0.923991
vt 0.805692 0.599534
vt 0.735075 0.923991
vt 0.877793 0.599534
vt 0.735075 0.815839
vt 0.877793 0.707686
vt 0.805692 0.707686
vt 0.733590 0.707686
vt 0.372452 0.815839
vt 0.444553 0.815839
vt 0.519513 0.815839
vt 0.516655 0.815839
vt 0.590872 0.815839
vt 0.591614 0.815839
vt 0.590872 0.707686
vt 0.591614 0.707686
vt 0.519513 0.707686
vt 0.516655 0.707686
vt 0.444553 0.707686
vt 0.733590 0.815839
vt 0.372452 0.707686
vt 0.805692 0.815839
vt 0.735075 0.707686
vt 0.877793 0.815839
vt 0.735075 0.599534
vt 0.877793 0.923991
vt 0.805692 0.923991
vt 0.733590 0.923991
vt 0.372452 0.599534
vt 0.444553 0.599534
vt 0.519513 0.599534
vt 0.516655 0.599534
vt 0.590872 0.599534
vt 0.591614 0.599534
vt 0.590872 0.470445
vt 0.591614 0.470444
vt 0.519513 0.470444
vt 0.516655 0.470445
vt 0.444553 0.470445
vt 0.733590 0.145987
vt 0.372452 0.470445
vt 0.805692 0.145987
vt 0.735075 0.470445
vt 0.877793 0.145987
vt 0.733590 0.254140
vt 0.372452 0.362292
vt 0.444553 0.362292
vt 0.519513 0.362292
vt 0.516655 0.362292
vt 0.590872 0.362292
vt 0.591614 0.362292
vt 0.735075 0.362292
vt 0.877793 0.254140
vt 0.805692 0.254140
vt 0.590872 0.254140
vt 0.591614 0.254140
vt 0.519513 0.254140
vt 0.516655 0.254140
vt 0.444553 0.254140
vt 0.733590 0.362292
vt 0.372452 0.254140
vt 0.805692 0.362292
vt 0.735075 0.254140
vt 0.877793 0.362292
vt 0.735075 0.145987
vt 0.877793 0.470444
vt 0.805692 0.470444
vt 0.733590 0.470444
vt 0.372452 0.145987
vt 0.444553 0.145987
vt 0.519513 0.145987
vt 0.516655 0.145987
vt 0.590872 0.145987
vt 0.591614 0.145987
vn 0.000000 1.000000 0.000000
vn 0.115193 0.911033 0.395915
vn 0.078335 0.910760 0.405437
vn 0.000000 1.000000 0.000000
vn 0.196514 0.708364 0.677940
vn 0.133713 0.707540 0.693908
vn 1.000000 0.000000 0.000000
vn 1.000000 0.000000 0.000000
vn 1.000000 0.000000 0.000000
vn 1.000000 0.000000 0.000000
vn 1.000000 0.000000 0.000000
vn 1.000000 0.000000 0.000000
vn 0.000000 -1.000000 0.000000
vn 0.000000 -1.000000 0.000000
vn 0.000000 -1.000000 0.000000
vn 0.000000 -1.000000 0.000000
vn 0.000000 -1.000000 0.000000
vn 0.000000 -1.000000 0.000000
vn 0.279508 0.000000 0.960143
vn 0.279508 0.000000 0.960143
vn 0.189813 0.000000 0.981820
vn 0.189813 0.000000 0.981820
vn -0.188487 0.000000 -0.982076
vn -0.188487 0.000000 -0.982076
vn -0.277685 0.000000 -0.960672
vn -0.277685 0.000000 -0.960672
vn 0.000000 0.000000 1.000000
vn 0.000000 0.000000 1.000000
vn 0.000000 0.000000 1.000000
vn 0.000000 0.000000 1.000000
vn 0.000000 0.000000 1.000000
vn 0.000000 0.000000 1.000000
vn 0.000000 1.000000 0.000000
vn 0.405120 0.910623 0.081506
vn 0.393401 0.911167 0.122516
vn 0.000000 1.000000 0.000000
vn 0.692544 0.707776 0.139411
vn 0.672812 0.709423 0.209864
vn 0.000000 -1.000000 0.000000
vn 0.000000 -1.000000 0.000000
vn 0.000000 -1.000000 0.000000
vn 0.000000 -1.000000 0.000000
vn 0.000000 -1.000000 0.000000
vn 0.000000 -1.000000 0.000000
vn 0.979855 0.000000 0.199710
vn 0.979855 0.000000 0.199710
vn 0.953101 0.000000 0.302652
vn 0.953101 0.000000 0.302652
vn -0.956940 0.000000 -0.290285
vn -0.956940 0.000000 -0.290285
vn -0.980785 0.000000 -0.195090
vn -0.980785 0.000000 -0.195090
vn -0.822361 -0.000742 -0.568966
vn -0.822342 -0.000742 -0.568994
vn -0.877897 -0.000375 -0.478850
vn -0.877903 -0.000375 -0.478838
vn 0.000000 -1.000000 0.000000
vn 0.000000 -1.000000 0.000000
vn 0.000000 -1.000000 0.000000
vn 0.000000 -1.000000 0.000000
vn 0.000000 -1.000000 0.000000
vn 0.000000 -1.000000 0.000000
vn 0.867950 0.000000 0.496651
vn 0.867950 0.000000 0.496651
vn 0.811879 0.000000 0.583826
vn 0.811879 0.000000 0.583826
vn 0.356251 0.912550 0.200843
vn 0.610016 0.713258 0.345172
vn 0.569776 0.714288 0.406383
vn 0.332550 0.913039 0.236157
vn 0.000000 1.000000 -0.000000
vn 0.000000 1.000000 -0.000000
vn 0.000000 1.000000 0.000000
vn 0.217314 0.912596 0.346329
vn 0.184540 0.912038 0.366239
vn 0.000000 1.000000 0.000000
vn 0.371356 0.712792 0.594997
vn 0.314917 0.711364 0.628322
vn 0.529299 0.000000 0.848435
vn 0.529299 0.000000 0.848435
vn 0.449084 0.000000 0.893490
vn 0.449084 0.000000 0.893490
vn 0.000000 -1.000000 0.000000
vn 0.000000 -1.000000 0.000000
vn 0.000000 -1.000000 0.000000
vn 0.000000 -1.000000 0.000000
vn 0.000000 -1.000000 0.000000
vn 0.000000 -1.000000 0.000000
vn -0.449490 0.000000 -0.893285
vn -0.449490 0.000000 -0.893285
vn -0.532066 -0.000341 -0.846703
vn -0.532066 -0.000341 -0.846703
vn 0.000000 1.000000 0.000000
vn 0.411432 0.910535 0.040610
vn 0.703631 0.707162 0.069458
vn 0.995140 0.000000 0.098468
vn 0.995140 0.000000 0.098468
vn 0.000000 -1.000000 0.000000
vn 0.000000 -1.000000 0.000000
vn 0.000000 -1.000000 0.000000
vn -0.995185 0.000000 -0.098017
vn -0.995185 0.000000 -0.098017
vn 0.000000 1.000000 0.000000
vn 0.248585 0.912982 0.323526
vn 0.425298 0.713801 0.556425
vn 0.606360 0.000000 0.795190
vn 0.606360 0.000000 0.795190
vn 0.000000 -1.000000 0.000000
vn 0.000000 -1.000000 0.000000
vn 0.000000 -1.000000 0.000000
vn -0.612596 -0.001057 -0.790396
vn -0.612691 -0.001058 -0.790322
vn 0.000000 -1.000000 0.000000
vn 0.000000 -1.000000 0.000000
vn 0.000000 -1.000000 0.000000
vn 0.748685 0.000000 0.662926
vn 0.748685 0.000000 0.662926
vn 0.525026 0.714656 0.462185
vn 0.306455 0.913238 0.268480
vn 0.000000 1.000000 -0.000000
vn -0.758774 -0.001085 -0.651353
vn -0.758735 -0.001085 -0.651399
vn 0.000000 -1.000000 0.000000
vn 0.000000 -1.000000 0.000000
vn 0.000000 -1.000000 0.000000
vn 0.097024 0.000000 0.995282
vn 0.097024 0.000000 0.995282
vn 0.068457 0.707181 0.703711
vn 0.040071 0.910610 0.411319
vn 0.000000 1.000000 0.000000
vn -0.096533 0.000000 -0.995330
vn -0.096533 0.000000 -0.995330
vn 0.000000 1.000000 0.000000
vn 0.413366 0.910338 0.020307
vn 0.706681 0.706681 0.034717
vn 0.998796 0.000000 0.049068
vn 0.998796 0.000000 0.049068
vn 0.000000 -1.000000 0.000000
vn 0.000000 -1.000000 0.000000
vn 0.000000 -1.000000 0.000000
vn -0.998795 0.000000 -0.049068
vn -0.998795 0.000000 -0.049068
vn 0.000000 -1.000000 0.000000
vn 0.000000 -1.000000 0.000000
vn 0.000000 -1.000000 0.000000
vn 0.915450 0.000000 0.402433
vn 0.915450 0.000000 0.402433
vn 0.644796 0.711545 0.279182
vn 0.376804 0.911892 0.162700
vn 0.000000 1.000000 -0.000000
vn -0.923071 -0.000094 -0.384629
vn -0.923071 -0.000094 -0.384629
vn 0.000000 -1.000000 0.000000
vn 0.000000 -1.000000 0.000000
vn 0.000000 -1.000000 0.000000
vn 0.714756 0.000000 0.699374
vn 0.714756 0.000000 0.699374
vn 0.502061 0.714252 0.487626
vn 0.300299 0.908158 0.291666
vn 0.000000 1.000000 -0.000000
vn -0.724347 -0.001244 -0.689435
vn -0.724347 -0.001244 -0.689435
vn 0.000000 1.000000 0.000000
vn 0.256511 0.917680 0.303422
vn 0.452137 0.713817 0.534825
vn 0.643435 0.000000 0.765501
vn 0.643435 0.000000 0.765501
vn 0.000000 -1.000000 0.000000
vn 0.000000 -1.000000 0.000000
vn 0.000000 -1.000000 0.000000
vn -0.651486 -0.001431 -0.758659
vn -0.651486 -0.001431 -0.758659
vn 0.365855 0.000000 0.930672
vn 0.365855 0.000000 0.930672
vn 0.256700 0.709715 0.656057
vn 0.150562 0.911386 0.383023
vn 0.000000 1.000000 0.000000
vn -0.364844 0.000000 -0.931069
vn -0.364844 0.000000 -0.931069
vn 0.000000 -1.000000 0.000000
vn 0.000000 -1.000000 0.000000
vn 0.000000 -1.000000 0.000000
vn 0.000000 -1.000000 0.000000
vn 0.000000 -1.000000 0.000000
vn 0.000000 -1.000000 0.000000
vn 0.049133 0.000000 0.998792
vn 0.049133 0.000000 0.998792
vn 0.034722 0.706694 0.706667
vn 0.020291 0.910518 0.412970
vn 0.000000 1.000000 0.000000
vn -0.048928 0.000000 -0.998802
vn -0.048928 0.000000 -0.998802
s 1
g OutsideBend
usemtl texturedFacets1
f 91/174/1 92/175/2 53/109/3 54/112/4
f 92/176/2 93/177/5 52/108/6 53/110/3
s 2
f 7/21/7 8/22/8 11/23/9 10/24/10
f 8/22/8 9/25/11 12/26/12 11/23/9
s 3
f 49/104/13 50/105/14 95/180/15 96/182/16
f 50/105/14 51/106/17 94/178/18 95/180/15
s 4
f 93/177/19 94/179/20 51/107/21 52/108/22
s 5
f 54/111/23 49/103/24 96/181/25 91/173/26
s 6
f 13/27/27 14/28/28 17/29/29 16/30/30
f 14/28/28 15/31/31 18/32/32 17/29/29
s 7
f 31/74/33 32/75/34 65/129/35 66/132/36
f 32/76/34 33/77/37 64/128/38 65/130/35
s 8
f 61/124/39 62/125/40 35/80/41 36/82/42
f 62/125/40 63/126/43 34/78/44 35/80/41
s 9
f 33/77/45 34/79/46 63/127/47 64/128/48
s 10
f 66/131/49 61/123/50 36/81/51 31/73/52
f 48/101/53 43/93/54 72/141/55 67/133/56
s 8
f 43/94/57 44/95/58 71/140/59 72/142/60
f 44/95/58 45/96/61 70/138/62 71/140/59
s 9
f 69/137/63 70/139/64 45/97/65 46/98/66
s 7
f 68/136/67 69/137/68 46/98/69 47/100/70
f 67/134/71 68/135/67 47/99/70 48/102/72
s 1
f 37/84/73 38/85/74 87/166/75 88/169/76
f 38/86/74 39/87/77 86/165/78 87/167/75
s 4
f 39/87/79 40/89/80 85/164/81 86/165/82
s 3
f 90/172/83 85/163/84 40/88/85 41/90/86
f 89/171/87 90/172/83 41/90/86 42/92/88
s 5
f 88/168/89 89/170/90 42/91/91 37/83/92
s 7
f 55/114/93 56/115/94 32/75/34 31/74/33
f 56/116/94 57/117/95 33/77/37 32/76/34
s 9
f 57/117/96 58/119/97 34/79/46 33/77/45
s 8
f 35/80/41 34/78/44 58/118/98 59/120/99
f 36/82/42 35/80/41 59/120/99 60/122/100
s 10
f 31/73/52 36/81/51 60/121/101 55/113/102
s 1
f 79/154/103 80/155/104 38/85/74 37/84/73
f 80/156/104 81/157/105 39/87/77 38/86/74
s 4
f 81/157/106 82/159/107 40/89/80 39/87/79
s 3
f 41/90/86 40/88/85 82/158/108 83/160/109
f 42/92/88 41/90/86 83/160/109 84/162/110
s 5
f 37/83/92 42/91/91 84/161/111 79/153/112
s 8
f 73/144/113 74/145/114 44/95/58 43/94/57
f 74/145/114 75/146/115 45/96/61 44/95/58
s 9
f 46/98/66 45/97/65 75/147/116 76/148/117
s 7
f 47/100/70 46/98/69 76/148/118 77/150/119
f 48/102/72 47/99/70 77/149/119 78/152/120
s 10
f 78/151/121 73/143/122 43/93/54 48/101/53
s 3
f 97/184/123 98/185/124 50/105/14 49/104/13
f 98/185/124 99/186/125 51/106/17 50/105/14
s 4
f 52/108/22 51/107/21 99/187/126 100/188/127
s 1
f 53/110/3 52/108/6 100/188/128 101/190/129
f 54/112/4 53/109/3 101/189/129 102/192/130
s 5
f 102/191/131 97/183/132 49/103/24 54/111/23
s 7
f 16/33/133 17/34/134 56/115/94 55/114/93
f 17/37/134 18/38/135 57/117/95 56/116/94
s 9
f 15/47/136 58/119/97 57/117/96 18/38/137
s 8
f 59/120/99 58/118/98 15/46/138 14/43/139
f 60/122/100 59/120/99 14/43/139 13/44/140
s 10
f 55/113/102 60/121/101 13/50/141 16/51/142
s 8
f 20/56/143 21/57/144 62/125/40 61/124/39
f 21/57/144 22/58/145 63/126/43 62/125/40
s 9
f 64/128/48 63/127/47 22/59/146 23/60/147
s 7
f 65/130/35 64/128/38 23/60/148 24/62/149
f 66/132/36 65/129/35 24/61/149 19/54/150
s 10
f 19/53/151 20/55/152 61/123/50 66/131/49
s 7
f 19/54/150 24/61/149 68/135/67 67/134/71
f 24/62/149 23/60/148 69/137/68 68/136/67
s 9
f 23/60/147 22/59/146 70/139/64 69/137/63
s 8
f 71/140/59 70/138/62 22/58/145 21/57/144
f 72/142/60 71/140/59 21/57/144 20/56/143
s 10
f 67/133/56 72/141/55 20/55/152 19/53/151
s 8
f 1/41/153 2/42/154 74/145/114 73/144/113
f 2/42/154 3/45/155 75/146/115 74/145/114
s 9
f 76/148/117 75/147/116 3/48/156 6/39/157
s 7
f 77/150/119 76/148/118 6/39/158 5/40/159
f 78/152/120 77/149/119 5/35/159 4/36/160
s 10
f 1/49/161 73/143/122 78/151/121 4/52/162
s 1
f 4/11/163 5/12/164 80/155/104 79/154/103
f 5/5/164 6/4/165 81/157/105 80/156/104
s 4
f 3/1/166 82/159/107 81/157/106 6/4/167
s 3
f 83/160/109 82/158/108 3/20/168 2/17/169
f 84/162/110 83/160/109 2/17/169 1/18/170
s 5
f 79/153/112 84/161/111 1/8/171 4/9/172
s 4
f 86/165/82 85/164/81 28/69/173 27/67/174
s 1
f 87/167/75 86/165/78 27/67/175 26/66/176
f 88/169/76 87/166/75 26/65/176 25/64/177
s 5
f 25/63/178 30/71/179 89/170/90 88/168/89
s 3
f 30/72/180 29/70/181 90/172/83 89/171/87
f 29/70/181 28/68/182 85/163/84 90/172/83
s 1
f 25/64/177 26/65/176 92/175/2 91/174/1
f 26/66/176 27/67/175 93/177/5 92/176/2
s 4
f 27/67/174 28/69/173 94/179/20 93/177/19
s 3
f 95/180/15 94/178/18 28/68/182 29/70/181
f 96/182/16 95/180/15 29/70/181 30/72/180
s 5
f 91/173/26 96/181/25 30/71/179 25/63/178
s 3
f 10/15/183 11/16/184 98/185/124 97/184/123
f 11/16/184 12/19/185 99/186/125 98/185/124
s 4
f 100/188/127 99/187/126 12/2/186 9/3/187
s 1
f 101/190/129 100/188/128 9/3/188 8/6/189
f 102/192/130 101/189/129 8/13/189 7/14/190
s 5
f 10/7/191 97/183/132 102/191/131 7/10/192
