# This file uses centimeters as units for non-parametric coordinates.

mtllib OutsideWall_LP.mtl
g default
v 0.000000 0.000000 0.000000
v 0.500000 0.000000 0.000000
v 1.000000 0.000000 0.000000
v 0.000000 1.000000 0.000000
v 0.500000 1.000000 0.000000
v 1.000000 0.500000 0.000000
v 0.000000 1.000000 -4.000000
v 0.500000 1.000000 -3.500000
v 1.000000 0.500000 -3.000000
v 0.000000 0.000000 -4.000000
v 0.500000 0.000000 -3.500000
v 1.000000 0.000000 -3.000000
v 4.000000 1.000000 -4.000000
v 4.000000 1.000000 -3.500000
v 4.000000 0.500000 -3.000000
v 4.000000 0.000000 -4.000000
v 4.000000 0.000000 -3.500000
v 4.000000 0.000000 -3.000000
v 0.000000 1.000000 -4.000000
v 0.000000 1.000000 -4.000000
v 0.000000 1.000000 -4.000000
v 0.000000 1.000000 -4.000000
v 0.000000 1.000000 -4.000000
v 0.500000 1.000000 -3.500000
v 0.500000 1.000000 -3.500000
v 0.500000 1.000000 -3.500000
v 0.500000 1.000000 -3.500000
v 0.500000 1.000000 -3.500000
v 0.500000 1.000000 -3.500000
v 0.500000 1.000000 -3.500000
v 1.000000 0.500000 -3.000000
v 1.000000 0.500000 -3.000000
v 1.000000 0.500000 -3.000000
v 1.000000 0.500000 -3.000000
v 1.000000 0.500000 -3.000000
v 0.000000 0.000000 -4.000000
v 0.000000 0.000000 -4.000000
v 0.000000 0.000000 -4.000000
v 0.000000 0.000000 -4.000000
v 0.000000 0.000000 -4.000000
v 0.500000 0.000000 -3.500000
v 0.500000 0.000000 -3.500000
v 0.500000 0.000000 -3.500000
v 0.500000 0.000000 -3.500000
v 0.500000 0.000000 -3.500000
v 0.500000 0.000000 -3.500000
v 0.500000 0.000000 -3.500000
v 1.000000 0.000000 -3.000000
v 1.000000 0.000000 -3.000000
v 1.000000 0.000000 -3.000000
v 1.000000 0.000000 -3.000000
v 1.000000 0.000000 -3.000000
vt 0.726218 0.964813
vt 0.803832 0.964813
vt 0.467581 0.014427
vt 0.373872 0.014427
vt 0.193271 0.552154
vt 0.014029 0.552154
vt 0.091643 0.752808
vt 0.466171 0.014427
vt 0.106328 0.660508
vt 0.636257 0.014427
vt 0.723032 0.014427
vt 0.808682 0.014427
vt 0.169257 0.830422
vt 0.169257 0.908036
vt 0.014029 0.908036
vt 0.014029 0.830422
vt 0.169257 0.985650
vt 0.091643 0.985650
vt 0.634942 0.752808
vt 0.634942 0.830422
vt 0.660124 0.660508
vt 0.193950 0.014427
vt 0.193950 0.552154
vt 0.882547 0.499128
vt 0.373193 0.552154
vt 0.326688 0.985650
vt 0.249074 0.985650
vt 0.249074 0.830422
vt 0.326688 0.830422
vt 0.171460 0.908036
vt 0.171460 0.830422
vt 0.633072 0.535080
vt 0.807001 0.499128
vt 0.546296 0.014427
vt 0.726218 0.499128
vt 0.726218 0.014427
vt 0.804933 0.499128
vt 0.373193 0.014427
vt 0.014029 0.014427
vt 0.983445 0.199026
vt 0.014029 0.830422
vt 0.467581 0.635341
vt 0.014029 0.552154
vt 0.983445 0.383625
vt 0.014029 0.752808
vt 0.373872 0.660523
vt 0.328891 0.830422
vt 0.891146 0.199026
vt 0.545195 0.557727
vt 0.014029 0.644454
vt 0.882547 0.964813
vt 0.803832 0.499128
vt 0.891146 0.291326
vt 0.466171 0.568224
vt 0.421191 0.922721
vt 0.193271 0.014427
vt 0.723032 0.535080
vt 0.198628 0.552154
vt 0.983445 0.014427
vt 0.633072 0.014427
vt 0.889465 0.499128
vt 0.513490 0.830422
vt 0.983445 0.199026
vt 0.807001 0.014427
vt 0.636257 0.535080
vt 0.198628 0.644454
vt 0.891146 0.014427
vt 0.804933 0.964813
vt 0.726218 0.499128
vt 0.808682 0.499128
vt 0.513490 0.922721
vt 0.891146 0.199026
vt 0.889465 0.014427
vt 0.546296 0.535080
vt 0.545195 0.014427
vt 0.660124 0.752808
vn 0.000000 0.000000 1.000000
vn 0.000000 0.000000 1.000000
vn 0.000000 0.000000 1.000000
vn 0.000000 0.000000 1.000000
vn 0.000000 0.000000 1.000000
vn 0.000000 0.000000 1.000000
vn 0.000000 1.000000 0.000000
vn 0.000000 1.000000 0.000000
vn 0.000000 1.000000 0.000000
vn 0.000000 1.000000 0.000000
vn 0.707107 0.707107 0.000000
vn 0.707107 0.707107 0.000000
vn 0.707107 0.707107 0.000000
vn 0.707107 0.707107 0.000000
vn 0.707107 0.000000 -0.707107
vn 0.707107 0.000000 -0.707107
vn 0.707107 0.000000 -0.707107
vn 0.707107 0.000000 -0.707107
vn 0.707107 0.000000 -0.707107
vn 0.707107 0.000000 -0.707107
vn 0.707107 0.000000 -0.707107
vn 0.707107 0.000000 -0.707107
vn 0.000000 -1.000000 0.000000
vn 0.000000 -1.000000 0.000000
vn 0.000000 -1.000000 0.000000
vn 0.000000 -1.000000 0.000000
vn 0.000000 -1.000000 0.000000
vn 0.000000 -1.000000 0.000000
vn 0.000000 -1.000000 0.000000
vn 0.000000 -1.000000 0.000000
vn 1.000000 0.000000 0.000000
vn 1.000000 0.000000 0.000000
vn 1.000000 0.000000 0.000000
vn 1.000000 0.000000 0.000000
vn -1.000000 0.000000 0.000000
vn -1.000000 0.000000 0.000000
vn -1.000000 0.000000 0.000000
vn -1.000000 0.000000 0.000000
vn -0.707107 0.000000 0.707107
vn -0.707107 0.000000 0.707107
vn -0.707107 0.000000 0.707107
vn -0.707107 0.000000 0.707107
vn -0.707107 0.000000 0.707107
vn -0.707107 0.000000 0.707107
vn -0.707107 0.000000 0.707107
vn -0.707107 0.000000 0.707107
vn 0.000000 1.000000 0.000000
vn 0.000000 1.000000 0.000000
vn 0.000000 1.000000 0.000000
vn 0.000000 1.000000 0.000000
vn 0.000000 0.707107 0.707107
vn 0.000000 0.707107 0.707107
vn 0.000000 0.707107 0.707107
vn 0.000000 0.707107 0.707107
vn 1.000000 0.000000 0.000000
vn 1.000000 0.000000 0.000000
vn 1.000000 0.000000 0.000000
vn 1.000000 0.000000 0.000000
vn 1.000000 0.000000 0.000000
vn 1.000000 0.000000 0.000000
vn 0.000000 -1.000000 0.000000
vn 0.000000 -1.000000 0.000000
vn 0.000000 -1.000000 0.000000
vn 0.000000 -1.000000 0.000000
vn 0.000000 -1.000000 0.000000
vn 0.000000 -1.000000 0.000000
vn 0.000000 -1.000000 0.000000
vn 0.000000 -1.000000 0.000000
vn 0.000000 0.000000 1.000000
vn 0.000000 0.000000 1.000000
vn 0.000000 0.000000 1.000000
vn 0.000000 0.000000 1.000000
vn 0.000000 0.000000 -1.000000
vn 0.000000 0.000000 -1.000000
vn 0.000000 0.000000 -1.000000
vn 0.000000 0.000000 -1.000000
s 1
g OutsideWall
usemtl texturedFacets1
f 1/13/1 2/14/2 5/15/3 4/16/4
f 2/14/2 3/17/5 6/18/6 5/15/3
s off
usemtl texturedFacets2
f 4/3/7 5/75/8 29/49/9 23/42/10
f 5/4/11 6/8/12 35/54/13 30/46/14
usemtl texturedFacets1
f 22/40/15 25/48/16 44/67/17 40/59/18
f 27/44/19 32/53/20 51/72/21 46/63/22
f 38/57/23 42/65/24 2/10/25 1/11/26
f 43/61/27 49/70/28 3/12/29 2/73/30
f 3/1/31 50/69/32 33/52/33 6/2/34
f 37/56/35 1/5/36 4/6/37 20/39/38
f 39/58/39 47/66/40 28/50/41 21/43/42
f 45/62/43 52/71/44 34/55/45 26/47/46
usemtl texturedFacets2
f 19/41/47 8/7/48 14/19/49 13/20/50
f 24/45/51 9/9/52 15/21/53 14/76/54
s 2
usemtl texturedFacets1
f 13/26/55 14/27/56 17/28/57 16/29/58
f 14/27/56 15/30/59 18/31/60 17/28/57
s off
f 16/32/61 17/74/62 11/34/63 36/60/64
f 17/33/65 18/35/66 12/36/67 41/64/68
f 48/68/69 18/37/70 15/24/71 31/51/72
f 16/38/73 10/25/74 7/23/75 13/22/76
