# This file uses centimeters as units for non-parametric coordinates.

mtllib InsideBend_LP.mtl
g default
v 1.555475 0.000000 -1.513311
v 1.239697 0.000000 -1.905560
v 0.928890 0.000000 -2.302902
v 1.555475 1.000000 -1.513311
v 1.239696 1.000000 -1.905561
v 0.934648 0.500000 -2.308801
v 3.000000 1.000000 -2.000000
v 3.000000 1.000000 -2.487067
v 3.000000 0.500000 -3.000000
v 3.000000 0.000000 -2.000000
v 3.000000 0.000000 -2.487067
v 3.000000 0.000000 -3.000000
v 1.000000 0.000000 0.000000
v 0.500000 0.000000 0.000000
v 0.000000 0.000000 -0.000000
v 1.000000 1.000000 0.000000
v 0.500000 1.000000 0.000000
v -0.000000 0.500000 0.000000
v 1.155565 1.000000 -0.866192
v 1.155565 0.000000 -0.866192
v 0.711383 0.000000 -1.075724
v 0.252699 0.000000 -1.270401
v 0.252699 0.500000 -1.270401
v 0.711383 1.000000 -1.075724
v 2.171601 1.000000 -1.876387
v 2.007757 1.000000 -2.366498
v 1.846694 0.500000 -2.859455
v 1.846694 0.000000 -2.859455
v 2.007757 0.000000 -2.366497
v 2.171601 0.000000 -1.876387
v 1.042946 1.000000 -0.450888
v 0.554180 1.000000 -0.550100
v 0.063787 0.500000 -0.647645
v 0.063787 0.000000 -0.647645
v 0.554180 0.000000 -0.550100
v 1.042946 0.000000 -0.450888
v 1.836632 1.000000 -1.729716
v 1.595043 1.000000 -2.182530
v 1.372918 0.500000 -2.655283
v 1.362553 0.000000 -2.644665
v 1.595044 0.000000 -2.182529
v 1.836632 0.000000 -1.729716
v 1.327914 0.000000 -1.224200
v 0.943880 0.000000 -1.534461
v 0.552843 0.000000 -1.837545
v 0.554756 0.500000 -1.839505
v 0.943881 1.000000 -1.534460
v 1.327914 1.000000 -1.224200
v 2.559564 0.000000 -1.960044
v 2.469984 0.000000 -2.458595
v 2.381772 0.000000 -2.958548
v 2.381772 0.500000 -2.958548
v 2.469984 1.000000 -2.458595
v 2.559564 1.000000 -1.960044
v 1.011170 1.000000 -0.227372
v 0.513578 1.000000 -0.276381
v 0.015985 0.500000 -0.325389
v 0.015985 0.000000 -0.325389
v 0.513578 0.000000 -0.276381
v 1.011170 0.000000 -0.227372
v 1.091405 0.000000 -0.664690
v 0.621416 0.000000 -0.818521
v 0.142946 0.000000 -0.963663
v 0.142946 0.500000 -0.963663
v 0.621416 1.000000 -0.818521
v 1.091405 1.000000 -0.664690
v 1.234622 1.000000 -1.053262
v 0.819280 1.000000 -1.315204
v 0.391988 0.500000 -1.564904
v 0.391988 0.000000 -1.564904
v 0.819280 0.000000 -1.315204
v 1.234622 0.000000 -1.053262
v 1.434960 0.000000 -1.377787
v 1.084230 0.000000 -1.731633
v 0.732528 0.000000 -2.084482
v 0.736088 0.500000 -2.088129
v 1.084230 1.000000 -1.731633
v 1.434960 1.000000 -1.377788
v 1.689358 1.000000 -1.630548
v 1.409977 1.000000 -2.055792
v 1.149568 0.500000 -2.500469
v 1.141737 0.000000 -2.492447
v 1.409977 0.000000 -2.055791
v 1.689357 0.000000 -1.630548
v 1.597001 0.000000 -2.766069
v 1.604376 0.500000 -2.773624
v 1.795043 1.000000 -2.286530
v 1.997374 1.000000 -1.811390
v 1.997374 0.000000 -1.811390
v 1.795041 0.000000 -2.286533
v 2.359150 1.000000 -1.925638
v 2.230873 1.000000 -2.421385
v 2.105005 0.500000 -2.919601
v 2.105005 0.000000 -2.919601
v 2.230873 0.000000 -2.421385
v 2.359150 0.000000 -1.925638
v 2.771967 0.000000 -1.980356
v 2.725023 0.000000 -2.480063
v 2.678468 0.000000 -2.980169
v 2.678468 0.500000 -2.980169
v 2.725023 1.000000 -2.480063
v 2.771967 1.000000 -1.980356
vt 0.372452 0.524521
vt 0.372452 0.091911
vt 0.444553 0.091911
vt 0.444553 0.524521
vt 0.516655 0.524521
vt 0.516655 0.091911
vt 0.735075 0.091911
vt 0.735075 0.524521
vt 0.590872 0.524521
vt 0.590872 0.091911
vt 0.591614 0.524521
vt 0.519513 0.524521
vt 0.519513 0.091911
vt 0.591614 0.091911
vt 0.877793 0.524521
vt 0.805692 0.524521
vt 0.805692 0.091911
vt 0.877793 0.091911
vt 0.733590 0.524521
vt 0.733590 0.091911
vt 0.370216 0.238749
vt 0.298115 0.238749
vt 0.298115 0.094546
vt 0.370216 0.094546
vt 0.226013 0.166647
vt 0.226013 0.094546
vt 0.369321 0.548092
vt 0.369321 0.620194
vt 0.225118 0.620194
vt 0.225118 0.548092
vt 0.369321 0.692295
vt 0.297219 0.692295
vt 0.591614 0.978067
vt 0.519513 0.978067
vt 0.519513 0.545458
vt 0.591614 0.545458
vt 0.516655 0.978067
vt 0.444553 0.978067
vt 0.444553 0.545458
vt 0.516655 0.545458
vt 0.877793 0.978067
vt 0.805692 0.978067
vt 0.805692 0.545458
vt 0.877793 0.545458
vt 0.733590 0.978067
vt 0.733590 0.545458
vt 0.372452 0.978067
vt 0.372452 0.545458
vt 0.735075 0.545458
vt 0.735075 0.978067
vt 0.590872 0.978067
vt 0.590872 0.545458
vt 0.590872 0.761763
vt 0.591614 0.761763
vt 0.735075 0.761763
vt 0.877793 0.761763
vt 0.805692 0.761763
vt 0.733590 0.761763
vt 0.372452 0.761763
vt 0.444553 0.761763
vt 0.519513 0.761763
vt 0.516655 0.761763
vt 0.590872 0.308216
vt 0.591614 0.308216
vt 0.519513 0.308216
vt 0.516655 0.308216
vt 0.444553 0.308216
vt 0.733590 0.308216
vt 0.372452 0.308216
vt 0.805692 0.308216
vt 0.735075 0.308216
vt 0.877793 0.308216
vt 0.590872 0.869915
vt 0.591614 0.869915
vt 0.519513 0.869915
vt 0.516655 0.869915
vt 0.444553 0.869915
vt 0.733590 0.653610
vt 0.372452 0.869915
vt 0.805692 0.653610
vt 0.735075 0.869915
vt 0.877793 0.653610
vt 0.590872 0.416368
vt 0.591614 0.416368
vt 0.519513 0.416368
vt 0.516655 0.416368
vt 0.444553 0.416368
vt 0.733590 0.200064
vt 0.372452 0.416368
vt 0.805692 0.200064
vt 0.735075 0.416368
vt 0.877793 0.200064
vt 0.735075 0.653610
vt 0.877793 0.869915
vt 0.805692 0.869915
vt 0.733590 0.869915
vt 0.372452 0.653610
vt 0.444553 0.653610
vt 0.519513 0.653610
vt 0.516655 0.653610
vt 0.590872 0.653610
vt 0.591614 0.653610
vt 0.735075 0.200064
vt 0.877793 0.416368
vt 0.805692 0.416368
vt 0.733590 0.416368
vt 0.372452 0.200064
vt 0.444553 0.200064
vt 0.519513 0.200064
vt 0.516655 0.200064
vt 0.590872 0.200064
vt 0.591614 0.200064
vt 0.590872 0.923991
vt 0.591614 0.923991
vt 0.519513 0.923991
vt 0.516655 0.923991
vt 0.444553 0.923991
vt 0.733590 0.599534
vt 0.372452 0.923991
vt 0.805692 0.599534
vt 0.735075 0.923991
vt 0.877793 0.599534
vt 0.735075 0.815839
vt 0.877793 0.707686
vt 0.805692 0.707686
vt 0.733590 0.707686
vt 0.372452 0.815839
vt 0.444553 0.815839
vt 0.519513 0.815839
vt 0.516655 0.815839
vt 0.590872 0.815839
vt 0.591614 0.815839
vt 0.590872 0.707686
vt 0.591614 0.707686
vt 0.519513 0.707686
vt 0.516655 0.707686
vt 0.444553 0.707686
vt 0.733590 0.815839
vt 0.372452 0.707686
vt 0.805692 0.815839
vt 0.735075 0.707686
vt 0.877793 0.815839
vt 0.735075 0.599534
vt 0.877793 0.923991
vt 0.805692 0.923991
vt 0.733590 0.923991
vt 0.372452 0.599534
vt 0.444553 0.599534
vt 0.519513 0.599534
vt 0.516655 0.599534
vt 0.590872 0.599534
vt 0.591614 0.599534
vt 0.590872 0.470445
vt 0.591614 0.470444
vt 0.519513 0.470444
vt 0.516655 0.470445
vt 0.444553 0.470445
vt 0.733590 0.145987
vt 0.372452 0.470445
vt 0.805692 0.145987
vt 0.735075 0.470445
vt 0.877793 0.145987
vt 0.733590 0.254140
vt 0.372452 0.362292
vt 0.444553 0.362292
vt 0.519513 0.362292
vt 0.516655 0.362292
vt 0.590872 0.362292
vt 0.591614 0.362292
vt 0.735075 0.362292
vt 0.877793 0.254140
vt 0.805692 0.254140
vt 0.590872 0.254140
vt 0.591614 0.254140
vt 0.519513 0.254140
vt 0.516655 0.254140
vt 0.444553 0.254140
vt 0.733590 0.362292
vt 0.372452 0.254140
vt 0.805692 0.362292
vt 0.735075 0.254140
vt 0.877793 0.362292
vt 0.735075 0.145987
vt 0.877793 0.470444
vt 0.805692 0.470444
vt 0.733590 0.470444
vt 0.372452 0.145987
vt 0.444553 0.145987
vt 0.519513 0.145987
vt 0.516655 0.145987
vt 0.590872 0.145987
vt 0.591614 0.145987
vn 0.000000 1.000000 0.000000
vn 0.000000 1.000000 0.000000
vn -0.052589 0.878694 -0.474480
vn -0.088774 0.880569 -0.465530
vn -0.078709 0.711912 -0.697844
vn -0.132317 0.716033 -0.685412
vn 1.000000 0.000000 0.000000
vn 1.000000 0.000000 0.000000
vn 1.000000 0.000000 0.000000
vn 1.000000 0.000000 0.000000
vn 1.000000 0.000000 0.000000
vn 1.000000 0.000000 0.000000
vn 0.000000 -1.000000 0.000000
vn 0.000000 -1.000000 0.000000
vn 0.000000 -1.000000 0.000000
vn 0.000000 -1.000000 0.000000
vn 0.000000 -1.000000 0.000000
vn 0.000000 -1.000000 0.000000
vn -0.182097 0.000000 -0.983281
vn -0.105033 0.000000 -0.994469
vn -0.105033 0.000000 -0.994469
vn -0.182097 0.000000 -0.983281
vn 0.131399 0.000000 0.991330
vn 0.210786 0.000000 0.977532
vn 0.210786 0.000000 0.977532
vn 0.131399 0.000000 0.991330
vn 0.000000 0.000000 1.000000
vn 0.000000 0.000000 1.000000
vn 0.000000 -0.000000 1.000000
vn 0.000000 -0.000000 1.000000
vn -0.000000 -0.000000 1.000000
vn -0.000000 -0.000000 1.000000
vn 0.000000 1.000000 0.000000
vn 0.000000 1.000000 0.000000
vn -0.471821 0.870157 -0.142165
vn -0.480012 0.872051 -0.095480
vn -0.677383 0.706733 -0.204158
vn -0.693520 0.707107 -0.137950
vn 0.000000 -1.000000 0.000000
vn 0.000000 -1.000000 0.000000
vn 0.000000 -1.000000 0.000000
vn 0.000000 -1.000000 0.000000
vn 0.000000 -1.000000 0.000000
vn 0.000000 -1.000000 0.000000
vn -0.980785 -0.000000 -0.195090
vn -0.956940 -0.000000 -0.290285
vn -0.956940 -0.000000 -0.290285
vn -0.980785 -0.000000 -0.195090
vn 0.965144 0.000000 0.261721
vn 0.983583 0.000000 0.180458
vn 0.983583 0.000000 0.180458
vn 0.965144 0.000000 0.261721
vn 0.850920 0.000000 0.525295
vn 0.901027 0.000000 0.433764
vn 0.901027 0.000000 0.433764
vn 0.850920 0.000000 0.525295
vn 0.000000 -1.000000 0.000000
vn 0.000000 -1.000000 0.000000
vn 0.000000 -1.000000 0.000000
vn 0.000000 -1.000000 0.000000
vn 0.000000 -1.000000 0.000000
vn 0.000000 -1.000000 0.000000
vn -0.883576 0.000321 -0.468288
vn -0.835847 0.000883 -0.548961
vn -0.836027 0.000882 -0.548688
vn -0.883576 0.000321 -0.468288
vn -0.446413 0.864367 -0.231486
vn -0.424200 0.863217 -0.273699
vn -0.596820 0.702104 -0.388403
vn -0.630597 0.703090 -0.328652
vn 0.000000 1.000000 0.000000
vn 0.000000 1.000000 0.000000
vn 0.000000 1.000000 0.000000
vn 0.000000 1.000000 0.000000
vn -0.190492 0.880780 -0.433519
vn -0.248197 0.877197 -0.411003
vn -0.276821 0.722112 -0.633975
vn -0.355115 0.720204 -0.595986
vn -0.513978 -0.006533 -0.857778
vn -0.399992 -0.006299 -0.916497
vn -0.401428 -0.006343 -0.915868
vn -0.516005 -0.006477 -0.856561
vn 0.000000 -1.000000 0.000000
vn 0.000000 -1.000000 0.000000
vn 0.000000 -1.000000 0.000000
vn 0.000000 -1.000000 0.000000
vn 0.000000 -1.000000 0.000000
vn 0.000000 -1.000000 0.000000
vn 0.401100 0.000000 0.916034
vn 0.506304 -0.000000 0.862355
vn 0.506304 -0.000000 0.862355
vn 0.401100 0.000000 0.916034
vn 0.000000 1.000000 0.000000
vn -0.485074 0.873167 -0.047776
vn -0.703702 0.707107 -0.069309
vn -0.995185 0.000000 -0.098017
vn -0.995185 0.000000 -0.098017
vn 0.000000 -1.000000 0.000000
vn 0.000000 -1.000000 0.000000
vn 0.000000 -1.000000 0.000000
vn 0.995495 0.000000 0.094818
vn 0.995495 0.000000 0.094818
vn 0.000000 1.000000 0.000000
vn -0.304345 0.871480 -0.384573
vn -0.429926 0.714663 -0.551743
vn -0.618889 -0.003147 -0.785472
vn -0.620254 -0.003095 -0.784395
vn 0.000000 -1.000000 0.000000
vn 0.000000 -1.000000 0.000000
vn 0.000000 -1.000000 0.000000
vn 0.609942 -0.000000 0.792446
vn 0.609942 -0.000000 0.792446
vn 0.000000 -1.000000 0.000000
vn 0.000000 -1.000000 0.000000
vn 0.000000 -1.000000 0.000000
vn -0.777315 0.000838 -0.629112
vn -0.777732 0.000842 -0.628595
vn -0.393088 0.864150 -0.314207
vn -0.552351 0.703833 -0.446686
vn 0.000000 1.000000 0.000000
vn 0.785785 0.000000 0.618499
vn 0.785785 0.000000 0.618499
vn 0.000000 -1.000000 0.000000
vn 0.000000 -1.000000 0.000000
vn 0.000000 -1.000000 0.000000
vn -0.066900 0.000000 -0.997760
vn -0.066900 0.000000 -0.997760
vn -0.029054 0.877169 -0.479303
vn -0.042879 0.710976 -0.701908
vn 0.000000 1.000000 0.000000
vn 0.090348 0.000000 0.995910
vn 0.090348 0.000000 0.995910
vn 0.000000 1.000000 0.000000
vn -0.486861 0.873152 -0.023918
vn -0.706681 0.706681 -0.034717
vn -0.998796 0.000000 -0.049068
vn -0.998796 0.000000 -0.049068
vn 0.000000 -1.000000 0.000000
vn 0.000000 -1.000000 0.000000
vn 0.000000 -1.000000 0.000000
vn 0.998796 0.000000 0.049067
vn 0.998796 0.000000 0.049067
vn 0.000000 -1.000000 0.000000
vn 0.000000 -1.000000 0.000000
vn 0.000000 -1.000000 0.000000
vn -0.923879 0.000000 -0.382684
vn -0.923879 0.000000 -0.382684
vn -0.461092 0.867327 -0.187449
vn -0.656567 0.705280 -0.267396
vn 0.000000 1.000000 0.000000
vn 0.938297 0.000000 0.345831
vn 0.938297 0.000000 0.345831
vn 0.000000 -1.000000 0.000000
vn 0.000000 -1.000000 0.000000
vn 0.000000 -1.000000 0.000000
vn -0.743514 0.000545 -0.668720
vn -0.743514 0.000545 -0.668720
vn -0.388535 0.852953 -0.348584
vn -0.528028 0.704815 -0.473733
vn 0.000000 1.000000 0.000000
vn 0.747271 0.000000 0.664519
vn 0.747271 0.000000 0.664519
vn 0.000000 1.000000 0.000000
vn -0.315285 0.880010 -0.355216
vn -0.467164 0.710446 -0.526331
vn -0.665314 -0.001352 -0.746563
vn -0.665314 -0.001352 -0.746563
vn 0.000000 -1.000000 0.000000
vn 0.000000 -1.000000 0.000000
vn 0.000000 -1.000000 0.000000
vn 0.658791 -0.000000 0.752326
vn 0.658791 -0.000000 0.752326
vn -0.284660 -0.002276 -0.958626
vn -0.284660 -0.002276 -0.958626
vn -0.135654 0.881130 -0.453000
vn -0.199883 0.720070 -0.664490
vn 0.000000 1.000000 0.000000
vn 0.301139 0.000000 0.953580
vn 0.301139 0.000000 0.953580
vn 0.000000 -1.000000 0.000000
vn 0.000000 -1.000000 0.000000
vn 0.000000 -1.000000 0.000000
vn 0.000000 -1.000000 0.000000
vn 0.000000 -1.000000 0.000000
vn 0.000000 -1.000000 0.000000
vn -0.061560 0.000000 -0.998103
vn -0.061560 0.000000 -0.998103
vn -0.021600 0.876925 -0.480141
vn -0.031555 0.712042 -0.701428
vn 0.000000 1.000000 0.000000
vn 0.085827 0.000000 0.996310
vn 0.085827 0.000000 0.996310
s 1
g InsideBend
usemtl texturedFacets1
f 91/174/1 54/112/2 53/109/3 92/175/4
f 92/176/4 53/110/3 52/108/5 93/177/6
s 2
f 7/21/7 10/24/8 11/23/9 8/22/10
f 8/22/10 11/23/9 12/26/11 9/25/12
s 3
f 49/104/13 96/182/14 95/180/15 50/105/16
f 50/105/16 95/180/15 94/178/17 51/106/18
s 4
f 93/177/19 52/108/20 51/107/21 94/179/22
s 5
f 54/111/23 91/173/24 96/181/25 49/103/26
s 6
f 13/27/27 16/30/28 17/29/29 14/28/30
f 14/28/30 17/29/29 18/32/31 15/31/32
s 7
f 31/74/33 66/132/34 65/129/35 32/75/36
f 32/76/36 65/130/35 64/128/37 33/77/38
s 8
f 61/124/39 36/82/40 35/80/41 62/125/42
f 62/125/42 35/80/41 34/78/43 63/126/44
s 9
f 33/77/45 64/128/46 63/127/47 34/79/48
s 10
f 66/131/49 31/73/50 36/81/51 61/123/52
f 48/101/53 67/133/54 72/141/55 43/93/56
s 8
f 43/94/57 72/142/58 71/140/59 44/95/60
f 44/95/60 71/140/59 70/138/61 45/96/62
s 9
f 69/137/63 46/98/64 45/97/65 70/139/66
s 7
f 68/136/67 47/100/68 46/98/69 69/137/70
f 67/134/71 48/102/72 47/99/68 68/135/67
s 1
f 37/84/73 88/169/74 87/166/75 38/85/76
f 38/86/76 87/167/75 86/165/77 39/87/78
s 4
f 39/87/79 86/165/80 85/164/81 40/89/82
s 3
f 90/172/83 41/90/84 40/88/85 85/163/86
f 89/171/87 42/92/88 41/90/84 90/172/83
s 5
f 88/168/89 37/83/90 42/91/91 89/170/92
s 7
f 55/114/93 31/74/33 32/75/36 56/115/94
f 56/116/94 32/76/36 33/77/38 57/117/95
s 9
f 57/117/96 33/77/45 34/79/48 58/119/97
s 8
f 35/80/41 59/120/98 58/118/99 34/78/43
f 36/82/40 60/122/100 59/120/98 35/80/41
s 10
f 31/73/50 55/113/101 60/121/102 36/81/51
s 1
f 79/154/103 37/84/73 38/85/76 80/155/104
f 80/156/104 38/86/76 39/87/78 81/157/105
s 4
f 81/157/106 39/87/79 40/89/82 82/159/107
s 3
f 41/90/84 83/160/108 82/158/109 40/88/85
f 42/92/88 84/162/110 83/160/108 41/90/84
s 5
f 37/83/90 79/153/111 84/161/112 42/91/91
s 8
f 73/144/113 43/94/57 44/95/60 74/145/114
f 74/145/114 44/95/60 45/96/62 75/146/115
s 9
f 46/98/64 76/148/116 75/147/117 45/97/65
s 7
f 47/100/68 77/150/118 76/148/119 46/98/69
f 48/102/72 78/152/120 77/149/118 47/99/68
s 10
f 78/151/121 48/101/53 43/93/56 73/143/122
s 3
f 97/184/123 49/104/13 50/105/16 98/185/124
f 98/185/124 50/105/16 51/106/18 99/186/125
s 4
f 52/108/20 100/188/126 99/187/127 51/107/21
s 1
f 53/110/3 101/190/128 100/188/129 52/108/5
f 54/112/2 102/192/130 101/189/128 53/109/3
s 5
f 102/191/131 54/111/23 49/103/26 97/183/132
s 7
f 16/33/133 55/114/93 56/115/94 17/34/134
f 17/37/134 56/116/94 57/117/95 18/38/135
s 9
f 15/47/136 18/38/137 57/117/96 58/119/97
s 8
f 59/120/98 14/43/138 15/46/139 58/118/99
f 60/122/100 13/44/140 14/43/138 59/120/98
s 10
f 55/113/101 16/51/141 13/50/142 60/121/102
s 8
f 20/56/143 61/124/39 62/125/42 21/57/144
f 21/57/144 62/125/42 63/126/44 22/58/145
s 9
f 64/128/46 23/60/146 22/59/147 63/127/47
s 7
f 65/130/35 24/62/148 23/60/149 64/128/37
f 66/132/34 19/54/150 24/61/148 65/129/35
s 10
f 19/53/151 66/131/49 61/123/52 20/55/152
s 7
f 19/54/150 67/134/71 68/135/67 24/61/148
f 24/62/148 68/136/67 69/137/70 23/60/149
s 9
f 23/60/146 69/137/63 70/139/66 22/59/147
s 8
f 71/140/59 21/57/144 22/58/145 70/138/61
f 72/142/58 20/56/143 21/57/144 71/140/59
s 10
f 67/133/54 19/53/151 20/55/152 72/141/55
s 8
f 1/41/153 73/144/113 74/145/114 2/42/154
f 2/42/154 74/145/114 75/146/115 3/45/155
s 9
f 76/148/116 6/39/156 3/48/157 75/147/117
s 7
f 77/150/118 5/40/158 6/39/159 76/148/119
f 78/152/120 4/36/160 5/35/158 77/149/118
s 10
f 1/49/161 4/52/162 78/151/121 73/143/122
s 1
f 4/11/163 79/154/103 80/155/104 5/12/164
f 5/5/164 80/156/104 81/157/105 6/4/165
s 4
f 3/1/166 6/4/167 81/157/106 82/159/107
s 3
f 83/160/108 2/17/168 3/20/169 82/158/109
f 84/162/110 1/18/170 2/17/168 83/160/108
s 5
f 79/153/111 4/9/171 1/8/172 84/161/112
s 4
f 86/165/80 27/67/173 28/69/174 85/164/81
s 1
f 87/167/75 26/66/175 27/67/176 86/165/77
f 88/169/74 25/64/177 26/65/175 87/166/75
s 5
f 25/63/178 88/168/89 89/170/92 30/71/179
s 3
f 30/72/180 89/171/87 90/172/83 29/70/181
f 29/70/181 90/172/83 85/163/86 28/68/182
s 1
f 25/64/177 91/174/1 92/175/4 26/65/175
f 26/66/175 92/176/4 93/177/6 27/67/176
s 4
f 27/67/173 93/177/19 94/179/22 28/69/174
s 3
f 95/180/15 29/70/181 28/68/182 94/178/17
f 96/182/14 30/72/180 29/70/181 95/180/15
s 5
f 91/173/24 25/63/178 30/71/179 96/181/25
s 3
f 10/15/183 97/184/123 98/185/124 11/16/184
f 11/16/184 98/185/124 99/186/125 12/19/185
s 4
f 100/188/126 9/3/186 12/2/187 99/187/127
s 1
f 101/190/128 8/6/188 9/3/189 100/188/129
f 102/192/130 7/14/190 8/13/188 101/189/128
s 5
f 10/7/191 7/10/192 102/191/131 97/183/132
