# This file uses centimeters as units for non-parametric coordinates.

mtllib OutsideCorner_LP.mtl
g default
v 0.000000 0.000000 0.000000
v 0.500000 0.000000 0.000000
v 1.000000 0.000000 0.000000
v 0.000000 1.000000 0.000000
v 0.500000 1.000000 0.000000
v 1.000000 0.500000 0.000000
v 0.000000 1.000000 -4.000000
v 0.500000 1.000000 -3.500000
v 1.000000 0.500000 -3.000000
v 0.000000 0.000000 -4.000000
v 0.500000 0.000000 -3.500000
v 1.000000 0.000000 -3.000000
v 4.000000 1.000000 -4.000000
v 4.000000 1.000000 -3.500000
v 4.000000 0.500000 -3.000000
v 4.000000 0.000000 -4.000000
v 4.000000 0.000000 -3.500000
v 4.000000 0.000000 -3.000000
v 0.000000 1.000000 -4.000000
v 0.000000 1.000000 -4.000000
v 0.000000 1.000000 -4.000000
v 0.500000 1.000000 -3.500000
v 0.500000 1.000000 -3.500000
v 0.500000 1.000000 -3.500000
v 1.000000 0.500000 -3.000000
v 1.000000 0.500000 -3.000000
v 1.000000 0.500000 -3.000000
v 0.000000 0.000000 -4.000000
v 0.000000 0.000000 -4.000000
v 0.000000 0.000000 -4.000000
v 0.500000 0.000000 -3.500000
v 0.500000 0.000000 -3.500000
v 0.500000 0.000000 -3.500000
v 1.000000 0.000000 -3.000000
v 1.000000 0.000000 -3.000000
v 1.000000 0.000000 -3.000000
vt 0.579862 0.682441
vt 0.579862 0.744297
vt 0.456149 0.744297
vt 0.456149 0.682441
vt 0.579862 0.806153
vt 0.518006 0.806153
vt 0.409298 0.123594
vt 0.471155 0.123594
vt 0.471155 0.556590
vt 0.409298 0.618446
vt 0.471154 0.142589
vt 0.534051 0.142589
vt 0.534051 0.497790
vt 0.471154 0.556989
vt 0.262545 0.943367
vt 0.193388 0.943367
vt 0.193388 0.528420
vt 0.262545 0.528420
vt 0.188020 0.934011
vt 0.123638 0.934011
vt 0.123638 0.547717
vt 0.188020 0.547717
vt 0.595404 0.126696
vt 0.595404 0.497835
vt 0.533548 0.497835
vt 0.533548 0.126696
vt 0.408238 0.552106
vt 0.408238 0.980661
vt 0.265386 0.980661
vt 0.265386 0.552106
vt 0.406218 0.619855
vt 0.468074 0.557998
vt 0.901070 0.557998
vt 0.901070 0.619855
vt 0.472948 0.556915
vt 0.534195 0.494774
vt 0.901675 0.494774
vt 0.901675 0.556915
vt 0.705330 0.806153
vt 0.643474 0.806153
vt 0.643474 0.682441
vt 0.705330 0.682441
vt 0.581618 0.744297
vt 0.581618 0.682441
vt 0.185415 0.539902
vt 0.116256 0.539902
vt 0.116256 0.124955
vt 0.185415 0.124955
vt 0.256846 0.509888
vt 0.192464 0.509888
vt 0.192464 0.123594
vt 0.256846 0.123594
vt 0.596944 0.435140
vt 0.968083 0.435140
vt 0.968083 0.496996
vt 0.596944 0.496996
vt 0.407500 0.123594
vt 0.407500 0.552149
vt 0.264648 0.552149
vt 0.264648 0.123594
vn 0.000000 0.000000 1.000000
vn 0.000000 0.000000 1.000000
vn 0.000000 0.000000 1.000000
vn 0.000000 0.000000 1.000000
vn 0.000000 0.000000 1.000000
vn 0.000000 0.000000 1.000000
vn 0.000000 0.000000 1.000000
vn 0.000000 0.000000 1.000000
vn 0.000000 1.000000 0.000000
vn 0.000000 1.000000 0.000000
vn 0.000000 1.000000 0.000000
vn 0.000000 1.000000 0.000000
vn 0.707107 0.707107 0.000000
vn 0.707107 0.707107 0.000000
vn 0.707107 0.707107 0.000000
vn 0.707107 0.707107 0.000000
vn 0.000000 -1.000000 0.000000
vn 0.000000 -1.000000 0.000000
vn 0.000000 -1.000000 0.000000
vn 0.000000 -1.000000 0.000000
vn 0.000000 -1.000000 0.000000
vn 0.000000 -1.000000 0.000000
vn 0.000000 -1.000000 0.000000
vn 0.000000 -1.000000 0.000000
vn 1.000000 0.000000 0.000000
vn 1.000000 0.000000 0.000000
vn 1.000000 0.000000 0.000000
vn 1.000000 0.000000 0.000000
vn -1.000000 0.000000 0.000000
vn -1.000000 0.000000 0.000000
vn -1.000000 0.000000 0.000000
vn -1.000000 0.000000 0.000000
vn 0.000000 1.000000 0.000000
vn 0.000000 1.000000 0.000000
vn 0.000000 1.000000 0.000000
vn 0.000000 1.000000 0.000000
vn 0.000000 0.707107 0.707107
vn 0.000000 0.707107 0.707107
vn 0.000000 0.707107 0.707107
vn 0.000000 0.707107 0.707107
vn 1.000000 0.000000 0.000000
vn 1.000000 0.000000 0.000000
vn 1.000000 0.000000 0.000000
vn 1.000000 0.000000 0.000000
vn 1.000000 0.000000 0.000000
vn 1.000000 0.000000 0.000000
vn 1.000000 0.000000 0.000000
vn 1.000000 0.000000 0.000000
vn 0.000000 -1.000000 0.000000
vn 0.000000 -1.000000 0.000000
vn 0.000000 -1.000000 0.000000
vn 0.000000 -1.000000 0.000000
vn 0.000000 -1.000000 0.000000
vn 0.000000 -1.000000 0.000000
vn 0.000000 -1.000000 0.000000
vn 0.000000 -1.000000 0.000000
vn 0.000000 0.000000 1.000000
vn 0.000000 0.000000 1.000000
vn 0.000000 0.000000 1.000000
vn 0.000000 0.000000 1.000000
vn 0.000000 0.000000 -1.000000
vn 0.000000 0.000000 -1.000000
vn 0.000000 0.000000 -1.000000
vn 0.000000 0.000000 -1.000000
s off
g OutsideCorner_LP:OutsideWall
usemtl initialShadingGroup
f 1/1/1 2/2/2 5/3/3 4/4/4
f 2/2/5 3/5/6 6/6/7 5/3/8
f 4/7/9 5/8/10 23/9/11 21/10/12
f 5/11/13 6/12/14 27/13/15 24/14/16
f 30/15/17 32/16/18 2/17/19 1/18/20
f 33/19/21 35/20/22 3/21/23 2/22/24
f 3/23/25 36/24/26 26/25/27 6/26/28
f 29/27/29 1/28/30 4/29/31 20/30/32
f 19/31/33 8/32/34 14/33/35 13/34/36
f 22/35/37 9/36/38 15/37/39 14/38/40
f 13/39/41 14/40/42 17/41/43 16/42/44
f 14/40/45 15/43/46 18/44/47 17/41/48
f 16/45/49 17/46/50 11/47/51 28/48/52
f 17/49/53 18/50/54 12/51/55 31/52/56
f 34/53/57 18/54/58 15/55/59 25/56/60
f 16/57/61 10/58/62 7/59/63 13/60/64
