# This file uses centimeters as units for non-parametric coordinates.

mtllib OutsideBend_LP.mtl
g default
v 0.209982 0.000000 -2.995243
v 0.533179 0.000000 -2.613867
v 0.860075 0.000000 -2.236085
v 0.213539 1.000000 -2.998592
v 0.537732 1.000000 -2.618134
v 0.860075 0.500000 -2.236085
v 3.000000 1.000000 -4.000000
v 3.000000 1.000000 -3.518627
v 3.000000 0.500000 -3.000000
v 3.000000 0.000000 -4.000000
v 3.000000 0.000000 -3.518627
v 3.000000 0.000000 -3.000000
v -0.990729 0.000000 0.000000
v -0.490729 0.000000 0.000000
v 0.009271 0.000000 0.000000
v -0.990729 1.000000 0.000000
v -0.490729 1.000000 0.000000
v 0.009271 0.500000 0.000000
v -0.661910 1.000000 -1.653085
v -0.661910 0.000000 -1.653085
v -0.206178 0.000000 -1.456451
v 0.242506 0.000000 -1.253201
v 0.242506 0.500000 -1.253201
v -0.205298 1.000000 -1.457255
v 1.450634 1.000000 -3.784275
v 1.623573 1.000000 -3.305325
v 1.795527 0.500000 -2.825427
v 1.795527 0.000000 -2.825427
v 1.621993 0.000000 -3.303907
v 1.450634 0.000000 -3.784275
v -0.907727 1.000000 -0.842735
v -0.417334 1.000000 -0.745190
v 0.071545 0.500000 -0.646563
v 0.071545 0.000000 -0.646563
v -0.417334 0.000000 -0.745190
v -0.907727 0.000000 -0.842735
v 0.792942 1.000000 -3.466766
v 1.043098 1.000000 -3.025861
v 1.290009 0.500000 -2.581791
v 1.290009 0.000000 -2.581791
v 1.036449 0.000000 -3.019655
v 0.792942 0.000000 -3.466766
v -0.279871 0.000000 -2.384406
v 0.115781 0.000000 -2.088196
v 0.508795 0.000000 -1.789732
v 0.508795 0.500000 -1.789732
v 0.118297 1.000000 -2.090568
v -0.278292 1.000000 -2.385896
v 2.187349 0.000000 -3.961624
v 2.278921 0.000000 -3.465596
v 2.371215 0.000000 -2.970229
v 2.371215 0.500000 -2.970229
v 2.278921 1.000000 -3.465596
v 2.187349 1.000000 -3.961624
v -0.969928 1.000000 -0.423406
v -0.472336 1.000000 -0.374398
v 0.025256 0.500000 -0.325389
v 0.025256 0.000000 -0.325389
v -0.472336 0.000000 -0.374398
v -0.969928 0.000000 -0.423406
v -0.804723 0.000000 -1.253948
v -0.326874 0.000000 -1.108435
v 0.144383 0.000000 -0.957077
v 0.144383 0.500000 -0.957077
v -0.326253 1.000000 -1.108806
v -0.804723 1.000000 -1.253948
v -0.484825 1.000000 -2.032762
v -0.056347 1.000000 -1.785757
v 0.364449 0.500000 -1.531689
v 0.364449 0.000000 -1.531689
v -0.057985 0.000000 -1.784220
v -0.485589 0.000000 -2.032051
v -0.047221 0.000000 -2.706468
v 0.313316 0.000000 -2.365462
v 0.674319 0.000000 -2.025074
v 0.674319 0.500000 -2.025074
v 0.316540 1.000000 -2.368579
v -0.044713 1.000000 -2.708847
v 0.495055 1.000000 -3.253289
v 0.780023 1.000000 -2.837353
v 1.065432 0.500000 -2.421784
v 1.065432 0.000000 -2.421784
v 0.774400 0.000000 -2.832098
v 0.490435 0.000000 -3.249056
v 1.533516 0.000000 -2.716205
v 1.533516 0.500000 -2.716205
v 1.325448 1.000000 -3.182591
v 1.111263 1.000000 -3.643256
v 1.111263 0.000000 -3.643256
v 1.319072 0.000000 -3.176712
v 1.809415 1.000000 -3.889733
v 1.941627 1.000000 -3.399223
v 2.075228 0.500000 -2.909957
v 2.075228 0.000000 -2.909957
v 1.941627 0.000000 -3.399223
v 1.809415 0.000000 -3.889733
v 2.586136 0.000000 -4.004325
v 2.633656 0.000000 -3.505303
v 2.681365 0.000000 -3.006460
v 2.681365 0.500000 -3.006460
v 2.633656 1.000000 -3.505303
v 2.586136 1.000000 -4.004325
vt 0.591614 0.254140
vt 0.519513 0.254140
vt 0.519513 0.200064
vt 0.591614 0.200064
vt 0.516655 0.254140
vt 0.444553 0.254140
vt 0.444553 0.200064
vt 0.516655 0.200064
vt 0.370216 0.238749
vt 0.298115 0.238749
vt 0.298115 0.094546
vt 0.370216 0.094546
vt 0.226013 0.166647
vt 0.226013 0.094546
vt 0.877793 0.416368
vt 0.805692 0.416368
vt 0.805692 0.362292
vt 0.877793 0.362292
vt 0.733590 0.416368
vt 0.733590 0.362292
vt 0.372452 0.254140
vt 0.372452 0.200064
vt 0.590872 0.200064
vt 0.735075 0.200064
vt 0.735075 0.254140
vt 0.590872 0.254140
vt 0.369321 0.548092
vt 0.369321 0.620194
vt 0.225118 0.620194
vt 0.225118 0.548092
vt 0.369321 0.692295
vt 0.297219 0.692295
vt 0.591614 0.869915
vt 0.519513 0.869915
vt 0.519513 0.815839
vt 0.591614 0.815839
vt 0.516655 0.869915
vt 0.444553 0.869915
vt 0.444553 0.815839
vt 0.516655 0.815839
vt 0.877793 0.707686
vt 0.805692 0.707686
vt 0.805692 0.653610
vt 0.877793 0.653610
vt 0.733590 0.707686
vt 0.733590 0.653610
vt 0.372452 0.869915
vt 0.372452 0.815839
vt 0.590872 0.815839
vt 0.735075 0.815839
vt 0.735075 0.869915
vt 0.590872 0.869915
vt 0.590872 0.653610
vt 0.735075 0.653610
vt 0.735075 0.707686
vt 0.590872 0.707686
vt 0.877793 0.869915
vt 0.805692 0.869915
vt 0.805692 0.815839
vt 0.877793 0.815839
vt 0.733590 0.869915
vt 0.733590 0.815839
vt 0.444553 0.707686
vt 0.372452 0.707686
vt 0.372452 0.653610
vt 0.444553 0.653610
vt 0.516655 0.707686
vt 0.516655 0.653610
vt 0.591614 0.707686
vt 0.519513 0.707686
vt 0.519513 0.653610
vt 0.591614 0.653610
vt 0.591614 0.416368
vt 0.519513 0.416368
vt 0.519513 0.362292
vt 0.591614 0.362292
vt 0.516655 0.416368
vt 0.444553 0.416368
vt 0.444553 0.362292
vt 0.516655 0.362292
vt 0.372452 0.416368
vt 0.372452 0.362292
vt 0.805692 0.254140
vt 0.733590 0.254140
vt 0.733590 0.200064
vt 0.805692 0.200064
vt 0.877793 0.254140
vt 0.877793 0.200064
vt 0.590872 0.362292
vt 0.735075 0.362292
vt 0.735075 0.416368
vt 0.590872 0.416368
vt 0.591614 0.923991
vt 0.519513 0.923991
vt 0.516655 0.923991
vt 0.444553 0.923991
vt 0.372452 0.923991
vt 0.733590 0.599534
vt 0.805692 0.599534
vt 0.877793 0.599534
vt 0.735075 0.923991
vt 0.590872 0.923991
vt 0.591614 0.470444
vt 0.519513 0.470444
vt 0.516655 0.470445
vt 0.444553 0.470445
vt 0.372452 0.470445
vt 0.733590 0.145987
vt 0.805692 0.145987
vt 0.877793 0.145987
vt 0.735075 0.470445
vt 0.590872 0.470445
vt 0.877793 0.923991
vt 0.805692 0.923991
vt 0.733590 0.923991
vt 0.372452 0.599534
vt 0.444553 0.599534
vt 0.516655 0.599534
vt 0.519513 0.599534
vt 0.591614 0.599534
vt 0.590872 0.599534
vt 0.735075 0.599534
vt 0.877793 0.470444
vt 0.805692 0.470444
vt 0.733590 0.470444
vt 0.372452 0.145987
vt 0.444553 0.145987
vt 0.516655 0.145987
vt 0.519513 0.145987
vt 0.591614 0.145987
vt 0.590872 0.145987
vt 0.735075 0.145987
vt 0.591614 0.978067
vt 0.519513 0.978067
vt 0.516655 0.978067
vt 0.444553 0.978067
vt 0.372452 0.978067
vt 0.733590 0.545458
vt 0.805692 0.545458
vt 0.877793 0.545458
vt 0.735075 0.978067
vt 0.590872 0.978067
vt 0.877793 0.761763
vt 0.805692 0.761763
vt 0.733590 0.761763
vt 0.372452 0.761763
vt 0.444553 0.761763
vt 0.516655 0.761763
vt 0.519513 0.761763
vt 0.591614 0.761763
vt 0.590872 0.761763
vt 0.735075 0.761763
vt 0.877793 0.978067
vt 0.805692 0.978067
vt 0.733590 0.978067
vt 0.372452 0.545458
vt 0.444553 0.545458
vt 0.516655 0.545458
vt 0.519513 0.545458
vt 0.591614 0.545458
vt 0.735075 0.545458
vt 0.590872 0.545458
vt 0.591614 0.524521
vt 0.519513 0.524521
vt 0.516655 0.524521
vt 0.444553 0.524521
vt 0.372452 0.524521
vt 0.733590 0.091911
vt 0.805692 0.091911
vt 0.877793 0.091911
vt 0.735075 0.524521
vt 0.590872 0.524521
vt 0.372452 0.308216
vt 0.444553 0.308216
vt 0.516655 0.308216
vt 0.519513 0.308216
vt 0.591614 0.308216
vt 0.590872 0.308216
vt 0.735075 0.308216
vt 0.877793 0.308216
vt 0.805692 0.308216
vt 0.733590 0.308216
vt 0.877793 0.524521
vt 0.805692 0.524521
vt 0.733590 0.524521
vt 0.372452 0.091911
vt 0.444553 0.091911
vt 0.516655 0.091911
vt 0.519513 0.091911
vt 0.591614 0.091911
vt 0.735075 0.091911
vt 0.590872 0.091911
vn 0.000000 1.000000 0.000000
vn 0.115193 0.911033 0.395915
vn 0.078335 0.910760 0.405437
vn 0.000000 1.000000 0.000000
vn 0.115193 0.911033 0.395915
vn 0.196514 0.708364 0.677940
vn 0.133713 0.707540 0.693908
vn 0.078335 0.910760 0.405437
vn 1.000000 0.000000 0.000000
vn 1.000000 0.000000 0.000000
vn 1.000000 0.000000 0.000000
vn 1.000000 0.000000 0.000000
vn 1.000000 0.000000 0.000000
vn 1.000000 0.000000 0.000000
vn 1.000000 0.000000 0.000000
vn 1.000000 0.000000 0.000000
vn 0.000000 -1.000000 0.000000
vn 0.000000 -1.000000 0.000000
vn 0.000000 -1.000000 0.000000
vn 0.000000 -1.000000 0.000000
vn 0.000000 -1.000000 0.000000
vn 0.000000 -1.000000 0.000000
vn 0.000000 -1.000000 0.000000
vn 0.000000 -1.000000 0.000000
vn 0.279508 0.000000 0.960143
vn 0.279508 0.000000 0.960143
vn 0.189813 0.000000 0.981820
vn 0.189813 0.000000 0.981820
vn -0.188487 0.000000 -0.982076
vn -0.188487 0.000000 -0.982076
vn -0.277685 0.000000 -0.960672
vn -0.277685 0.000000 -0.960672
vn 0.000000 0.000000 1.000000
vn 0.000000 0.000000 1.000000
vn 0.000000 0.000000 1.000000
vn 0.000000 0.000000 1.000000
vn 0.000000 0.000000 1.000000
vn 0.000000 0.000000 1.000000
vn 0.000000 0.000000 1.000000
vn 0.000000 0.000000 1.000000
vn 0.000000 1.000000 0.000000
vn 0.405120 0.910623 0.081506
vn 0.393401 0.911167 0.122516
vn 0.000000 1.000000 0.000000
vn 0.405120 0.910623 0.081506
vn 0.692544 0.707776 0.139411
vn 0.672812 0.709423 0.209864
vn 0.393401 0.911167 0.122516
vn 0.000000 -1.000000 0.000000
vn 0.000000 -1.000000 0.000000
vn 0.000000 -1.000000 0.000000
vn 0.000000 -1.000000 0.000000
vn 0.000000 -1.000000 0.000000
vn 0.000000 -1.000000 0.000000
vn 0.000000 -1.000000 0.000000
vn 0.000000 -1.000000 0.000000
vn 0.979855 0.000000 0.199710
vn 0.979855 0.000000 0.199710
vn 0.953101 0.000000 0.302652
vn 0.953101 0.000000 0.302652
vn -0.956940 0.000000 -0.290285
vn -0.956940 0.000000 -0.290285
vn -0.980785 0.000000 -0.195090
vn -0.980785 0.000000 -0.195090
vn -0.822361 -0.000742 -0.568966
vn -0.822342 -0.000742 -0.568994
vn -0.877897 -0.000375 -0.478850
vn -0.877903 -0.000375 -0.478838
vn 0.000000 -1.000000 0.000000
vn 0.000000 -1.000000 0.000000
vn 0.000000 -1.000000 0.000000
vn 0.000000 -1.000000 0.000000
vn 0.000000 -1.000000 0.000000
vn 0.000000 -1.000000 0.000000
vn 0.000000 -1.000000 0.000000
vn 0.000000 -1.000000 0.000000
vn 0.867950 0.000000 0.496651
vn 0.867950 0.000000 0.496651
vn 0.811879 0.000000 0.583826
vn 0.811879 0.000000 0.583826
vn 0.356251 0.912550 0.200843
vn 0.610016 0.713258 0.345172
vn 0.569776 0.714288 0.406383
vn 0.332550 0.913039 0.236157
vn 0.000000 1.000000 0.000000
vn 0.356251 0.912550 0.200843
vn 0.332550 0.913039 0.236157
vn 0.000000 1.000000 0.000000
vn 0.000000 1.000000 0.000000
vn 0.217314 0.912596 0.346329
vn 0.184540 0.912038 0.366239
vn 0.000000 1.000000 0.000000
vn 0.217314 0.912596 0.346329
vn 0.371356 0.712792 0.594997
vn 0.314917 0.711364 0.628322
vn 0.184540 0.912038 0.366239
vn 0.529299 0.000000 0.848435
vn 0.529299 0.000000 0.848435
vn 0.449084 0.000000 0.893490
vn 0.449084 0.000000 0.893490
vn 0.000000 -1.000000 0.000000
vn 0.000000 -1.000000 0.000000
vn 0.000000 -1.000000 0.000000
vn 0.000000 -1.000000 0.000000
vn 0.000000 -1.000000 0.000000
vn 0.000000 -1.000000 0.000000
vn 0.000000 -1.000000 0.000000
vn 0.000000 -1.000000 0.000000
vn -0.449490 0.000000 -0.893285
vn -0.449490 0.000000 -0.893285
vn -0.532066 -0.000341 -0.846703
vn -0.532066 -0.000341 -0.846703
vn 0.000000 1.000000 0.000000
vn 0.411432 0.910535 0.040610
vn 0.405120 0.910623 0.081506
vn 0.000000 1.000000 0.000000
vn 0.411432 0.910535 0.040610
vn 0.703631 0.707162 0.069458
vn 0.692544 0.707776 0.139411
vn 0.405120 0.910623 0.081506
vn 0.995140 0.000000 0.098468
vn 0.995140 0.000000 0.098468
vn 0.979855 0.000000 0.199710
vn 0.979855 0.000000 0.199710
vn 0.000000 -1.000000 0.000000
vn 0.000000 -1.000000 0.000000
vn 0.000000 -1.000000 0.000000
vn 0.000000 -1.000000 0.000000
vn 0.000000 -1.000000 0.000000
vn 0.000000 -1.000000 0.000000
vn 0.000000 -1.000000 0.000000
vn 0.000000 -1.000000 0.000000
vn -0.980785 0.000000 -0.195090
vn -0.980785 0.000000 -0.195090
vn -0.995185 0.000000 -0.098017
vn -0.995185 0.000000 -0.098017
vn 0.000000 1.000000 0.000000
vn 0.248585 0.912982 0.323526
vn 0.217314 0.912596 0.346329
vn 0.000000 1.000000 0.000000
vn 0.248585 0.912982 0.323526
vn 0.425298 0.713801 0.556425
vn 0.371356 0.712792 0.594997
vn 0.217314 0.912596 0.346329
vn 0.606360 0.000000 0.795190
vn 0.606360 0.000000 0.795190
vn 0.529299 0.000000 0.848435
vn 0.529299 0.000000 0.848435
vn 0.000000 -1.000000 0.000000
vn 0.000000 -1.000000 0.000000
vn 0.000000 -1.000000 0.000000
vn 0.000000 -1.000000 0.000000
vn 0.000000 -1.000000 0.000000
vn 0.000000 -1.000000 0.000000
vn 0.000000 -1.000000 0.000000
vn 0.000000 -1.000000 0.000000
vn -0.532066 -0.000341 -0.846703
vn -0.532066 -0.000341 -0.846703
vn -0.612596 -0.001057 -0.790396
vn -0.612691 -0.001058 -0.790322
vn 0.000000 -1.000000 0.000000
vn 0.000000 -1.000000 0.000000
vn 0.000000 -1.000000 0.000000
vn 0.000000 -1.000000 0.000000
vn 0.000000 -1.000000 0.000000
vn 0.000000 -1.000000 0.000000
vn 0.000000 -1.000000 0.000000
vn 0.000000 -1.000000 0.000000
vn 0.811879 0.000000 0.583826
vn 0.811879 0.000000 0.583826
vn 0.748685 0.000000 0.662926
vn 0.748685 0.000000 0.662926
vn 0.332550 0.913039 0.236157
vn 0.569776 0.714288 0.406383
vn 0.525026 0.714656 0.462185
vn 0.306455 0.913238 0.268480
vn 0.000000 1.000000 0.000000
vn 0.332550 0.913039 0.236157
vn 0.306455 0.913238 0.268480
vn 0.000000 1.000000 0.000000
vn -0.758774 -0.001085 -0.651353
vn -0.758735 -0.001085 -0.651399
vn -0.822342 -0.000742 -0.568994
vn -0.822361 -0.000742 -0.568966
vn 0.000000 -1.000000 0.000000
vn 0.000000 -1.000000 0.000000
vn 0.000000 -1.000000 0.000000
vn 0.000000 -1.000000 0.000000
vn 0.000000 -1.000000 0.000000
vn 0.000000 -1.000000 0.000000
vn 0.000000 -1.000000 0.000000
vn 0.000000 -1.000000 0.000000
vn 0.189813 0.000000 0.981820
vn 0.189813 0.000000 0.981820
vn 0.097024 0.000000 0.995282
vn 0.097024 0.000000 0.995282
vn 0.078335 0.910760 0.405437
vn 0.133713 0.707540 0.693908
vn 0.068457 0.707181 0.703711
vn 0.040071 0.910610 0.411319
vn 0.000000 1.000000 0.000000
vn 0.078335 0.910760 0.405437
vn 0.040071 0.910610 0.411319
vn 0.000000 1.000000 0.000000
vn -0.096533 0.000000 -0.995330
vn -0.096533 0.000000 -0.995330
vn -0.188487 0.000000 -0.982076
vn -0.188487 0.000000 -0.982076
vn 0.000000 1.000000 0.000000
vn 0.413366 0.910339 0.020307
vn 0.411432 0.910535 0.040610
vn 0.000000 1.000000 0.000000
vn 0.413366 0.910339 0.020307
vn 0.706681 0.706681 0.034717
vn 0.703631 0.707162 0.069458
vn 0.411432 0.910535 0.040610
vn 0.998796 0.000000 0.049068
vn 0.995140 0.000000 0.098468
vn 0.995140 0.000000 0.098468
vn 0.998796 0.000000 0.049068
vn 0.000000 -1.000000 0.000000
vn 0.000000 -1.000000 0.000000
vn 0.000000 -1.000000 0.000000
vn 0.000000 -1.000000 0.000000
vn 0.000000 -1.000000 0.000000
vn 0.000000 -1.000000 0.000000
vn 0.000000 -1.000000 0.000000
vn 0.000000 -1.000000 0.000000
vn -0.995185 0.000000 -0.098017
vn -0.995185 0.000000 -0.098017
vn -0.998795 0.000000 -0.049068
vn -0.998795 0.000000 -0.049068
vn 0.000000 -1.000000 0.000000
vn 0.000000 -1.000000 0.000000
vn 0.000000 -1.000000 0.000000
vn 0.000000 -1.000000 0.000000
vn 0.000000 -1.000000 0.000000
vn 0.000000 -1.000000 0.000000
vn 0.000000 -1.000000 0.000000
vn 0.000000 -1.000000 0.000000
vn 0.953101 0.000000 0.302652
vn 0.953101 0.000000 0.302652
vn 0.915450 0.000000 0.402433
vn 0.915450 0.000000 0.402433
vn 0.393401 0.911167 0.122516
vn 0.672812 0.709423 0.209864
vn 0.644796 0.711545 0.279182
vn 0.376804 0.911892 0.162700
vn 0.000000 1.000000 0.000000
vn 0.393401 0.911167 0.122516
vn 0.376804 0.911892 0.162700
vn 0.000000 1.000000 0.000000
vn -0.923071 -0.000094 -0.384629
vn -0.923071 -0.000094 -0.384629
vn -0.956940 0.000000 -0.290285
vn -0.956940 0.000000 -0.290285
vn 0.000000 1.000000 0.000000
vn 0.376804 0.911892 0.162700
vn 0.356251 0.912550 0.200843
vn 0.000000 1.000000 0.000000
vn 0.376804 0.911892 0.162700
vn 0.644796 0.711545 0.279182
vn 0.610016 0.713258 0.345172
vn 0.356251 0.912550 0.200843
vn 0.915450 0.000000 0.402433
vn 0.915450 0.000000 0.402433
vn 0.867950 0.000000 0.496651
vn 0.867950 0.000000 0.496651
vn 0.000000 -1.000000 0.000000
vn 0.000000 -1.000000 0.000000
vn 0.000000 -1.000000 0.000000
vn 0.000000 -1.000000 0.000000
vn 0.000000 -1.000000 0.000000
vn 0.000000 -1.000000 0.000000
vn 0.000000 -1.000000 0.000000
vn 0.000000 -1.000000 0.000000
vn -0.877903 -0.000375 -0.478838
vn -0.877897 -0.000375 -0.478850
vn -0.923071 -0.000094 -0.384629
vn -0.923071 -0.000094 -0.384629
vn 0.000000 -1.000000 0.000000
vn 0.000000 -1.000000 0.000000
vn 0.000000 -1.000000 0.000000
vn 0.000000 -1.000000 0.000000
vn 0.000000 -1.000000 0.000000
vn 0.000000 -1.000000 0.000000
vn 0.000000 -1.000000 0.000000
vn 0.000000 -1.000000 0.000000
vn 0.748685 0.000000 0.662926
vn 0.748685 0.000000 0.662926
vn 0.714756 0.000000 0.699374
vn 0.714756 0.000000 0.699374
vn 0.306455 0.913238 0.268480
vn 0.525026 0.714656 0.462185
vn 0.502061 0.714252 0.487626
vn 0.300299 0.908158 0.291666
vn 0.000000 1.000000 0.000000
vn 0.306455 0.913238 0.268480
vn 0.300299 0.908158 0.291666
vn 0.000000 1.000000 0.000000
vn -0.724347 -0.001244 -0.689435
vn -0.758735 -0.001085 -0.651399
vn -0.758774 -0.001085 -0.651353
vn -0.724347 -0.001244 -0.689435
vn 0.000000 1.000000 0.000000
vn 0.256511 0.917680 0.303422
vn 0.248585 0.912982 0.323526
vn 0.000000 1.000000 0.000000
vn 0.256511 0.917680 0.303422
vn 0.452137 0.713817 0.534825
vn 0.425298 0.713801 0.556425
vn 0.248585 0.912982 0.323526
vn 0.643435 0.000000 0.765501
vn 0.606360 0.000000 0.795190
vn 0.606360 0.000000 0.795190
vn 0.643435 0.000000 0.765501
vn 0.000000 -1.000000 0.000000
vn 0.000000 -1.000000 0.000000
vn 0.000000 -1.000000 0.000000
vn 0.000000 -1.000000 0.000000
vn 0.000000 -1.000000 0.000000
vn 0.000000 -1.000000 0.000000
vn 0.000000 -1.000000 0.000000
vn 0.000000 -1.000000 0.000000
vn -0.612691 -0.001058 -0.790322
vn -0.612596 -0.001057 -0.790396
vn -0.651486 -0.001431 -0.758659
vn -0.651486 -0.001431 -0.758659
vn 0.449084 0.000000 0.893490
vn 0.449084 0.000000 0.893490
vn 0.365855 0.000000 0.930672
vn 0.365855 0.000000 0.930672
vn 0.184540 0.912038 0.366239
vn 0.314917 0.711364 0.628322
vn 0.256700 0.709715 0.656057
vn 0.150562 0.911386 0.383023
vn 0.000000 1.000000 0.000000
vn 0.184540 0.912038 0.366239
vn 0.150562 0.911386 0.383023
vn 0.000000 1.000000 0.000000
vn -0.364844 0.000000 -0.931069
vn -0.364844 0.000000 -0.931069
vn -0.449490 0.000000 -0.893285
vn -0.449490 0.000000 -0.893285
vn 0.000000 -1.000000 0.000000
vn 0.000000 -1.000000 0.000000
vn 0.000000 -1.000000 0.000000
vn 0.000000 -1.000000 0.000000
vn 0.000000 -1.000000 0.000000
vn 0.000000 -1.000000 0.000000
vn 0.000000 -1.000000 0.000000
vn 0.000000 -1.000000 0.000000
vn 0.000000 1.000000 0.000000
vn 0.150562 0.911386 0.383023
vn 0.115193 0.911033 0.395915
vn 0.000000 1.000000 0.000000
vn 0.150562 0.911386 0.383023
vn 0.256700 0.709715 0.656057
vn 0.196514 0.708364 0.677940
vn 0.115193 0.911033 0.395915
vn 0.365855 0.000000 0.930672
vn 0.365855 0.000000 0.930672
vn 0.279508 0.000000 0.960143
vn 0.279508 0.000000 0.960143
vn 0.000000 -1.000000 0.000000
vn 0.000000 -1.000000 0.000000
vn 0.000000 -1.000000 0.000000
vn 0.000000 -1.000000 0.000000
vn 0.000000 -1.000000 0.000000
vn 0.000000 -1.000000 0.000000
vn 0.000000 -1.000000 0.000000
vn 0.000000 -1.000000 0.000000
vn -0.277685 0.000000 -0.960672
vn -0.277685 0.000000 -0.960672
vn -0.364844 0.000000 -0.931069
vn -0.364844 0.000000 -0.931069
vn 0.000000 -1.000000 0.000000
vn 0.000000 -1.000000 0.000000
vn 0.000000 -1.000000 0.000000
vn 0.000000 -1.000000 0.000000
vn 0.000000 -1.000000 0.000000
vn 0.000000 -1.000000 0.000000
vn 0.000000 -1.000000 0.000000
vn 0.000000 -1.000000 0.000000
vn 0.097024 0.000000 0.995282
vn 0.097024 0.000000 0.995282
vn 0.049133 0.000000 0.998792
vn 0.049133 0.000000 0.998792
vn 0.040071 0.910610 0.411319
vn 0.068457 0.707181 0.703711
vn 0.034722 0.706694 0.706667
vn 0.020291 0.910519 0.412970
vn 0.000000 1.000000 0.000000
vn 0.040071 0.910610 0.411319
vn 0.020291 0.910519 0.412970
vn 0.000000 1.000000 0.000000
vn -0.048928 0.000000 -0.998802
vn -0.096533 0.000000 -0.995330
vn -0.096533 0.000000 -0.995330
vn -0.048928 0.000000 -0.998802
s off
g OutsideBend1
usemtl OutsideBend_LP:texturedFacets1
f 91/1/1 92/2/2 53/3/3 54/4/4
f 92/5/5 93/6/6 52/7/7 53/8/8
f 7/9/9 8/10/10 11/11/11 10/12/12
f 8/10/13 9/13/14 12/14/15 11/11/16
f 49/15/17 50/16/18 95/17/19 96/18/20
f 50/16/21 51/19/22 94/20/23 95/17/24
f 93/6/25 94/21/26 51/22/27 52/7/28
f 54/23/29 49/24/30 96/25/31 91/26/32
f 13/27/33 14/28/34 17/29/35 16/30/36
f 14/28/37 15/31/38 18/32/39 17/29/40
f 31/33/41 32/34/42 65/35/43 66/36/44
f 32/37/45 33/38/46 64/39/47 65/40/48
f 61/41/49 62/42/50 35/43/51 36/44/52
f 62/42/53 63/45/54 34/46/55 35/43/56
f 33/38/57 34/47/58 63/48/59 64/39/60
f 66/49/61 61/50/62 36/51/63 31/52/64
f 48/53/65 43/54/66 72/55/67 67/56/68
f 43/57/69 44/58/70 71/59/71 72/60/72
f 44/58/73 45/61/74 70/62/75 71/59/76
f 69/63/77 70/64/78 45/65/79 46/66/80
f 68/67/81 69/63/82 46/66/83 47/68/84
f 67/69/85 68/70/86 47/71/87 48/72/88
f 37/73/89 38/74/90 87/75/91 88/76/92
f 38/77/93 39/78/94 86/79/95 87/80/96
f 39/78/97 40/81/98 85/82/99 86/79/100
f 90/83/101 85/84/102 40/85/103 41/86/104
f 89/87/105 90/83/106 41/86/107 42/88/108
f 88/89/109 89/90/110 42/91/111 37/92/112
f 55/93/113 56/94/114 32/34/115 31/33/116
f 56/95/117 57/96/118 33/38/119 32/37/120
f 57/96/121 58/97/122 34/47/123 33/38/124
f 35/43/125 34/46/126 58/98/127 59/99/128
f 36/44/129 35/43/130 59/99/131 60/100/132
f 31/52/133 36/51/134 60/101/135 55/102/136
f 79/103/137 80/104/138 38/74/139 37/73/140
f 80/105/141 81/106/142 39/78/143 38/77/144
f 81/106/145 82/107/146 40/81/147 39/78/148
f 41/86/149 40/85/150 82/108/151 83/109/152
f 42/88/153 41/86/154 83/109/155 84/110/156
f 37/92/157 42/91/158 84/111/159 79/112/160
f 73/113/161 74/114/162 44/58/163 43/57/164
f 74/114/165 75/115/166 45/61/167 44/58/168
f 46/66/169 45/65/170 75/116/171 76/117/172
f 47/68/173 46/66/174 76/117/175 77/118/176
f 48/72/177 47/71/178 77/119/179 78/120/180
f 78/121/181 73/122/182 43/54/183 48/53/184
f 97/123/185 98/124/186 50/16/187 49/15/188
f 98/124/189 99/125/190 51/19/191 50/16/192
f 52/7/193 51/22/194 99/126/195 100/127/196
f 53/8/197 52/7/198 100/127/199 101/128/200
f 54/4/201 53/3/202 101/129/203 102/130/204
f 102/131/205 97/132/206 49/24/207 54/23/208
f 16/133/209 17/134/210 56/94/211 55/93/212
f 17/135/213 18/136/214 57/96/215 56/95/216
f 15/137/217 58/97/218 57/96/219 18/136/220
f 59/99/221 58/98/222 15/138/223 14/139/224
f 60/100/225 59/99/226 14/139/227 13/140/228
f 55/102/229 60/101/230 13/141/231 16/142/232
f 20/143/233 21/144/234 62/42/235 61/41/236
f 21/144/237 22/145/238 63/45/239 62/42/240
f 64/39/241 63/48/242 22/146/243 23/147/244
f 65/40/245 64/39/246 23/147/247 24/148/248
f 66/36/249 65/35/250 24/149/251 19/150/252
f 19/151/253 20/152/254 61/50/255 66/49/256
f 19/150/257 24/149/258 68/70/259 67/69/260
f 24/148/261 23/147/262 69/63/263 68/67/264
f 23/147/265 22/146/266 70/64/267 69/63/268
f 71/59/269 70/62/270 22/145/271 21/144/272
f 72/60/273 71/59/274 21/144/275 20/143/276
f 67/56/277 72/55/278 20/152/279 19/151/280
f 1/153/281 2/154/282 74/114/283 73/113/284
f 2/154/285 3/155/286 75/115/287 74/114/288
f 76/117/289 75/116/290 3/156/291 6/157/292
f 77/118/293 76/117/294 6/157/295 5/158/296
f 78/120/297 77/119/298 5/159/299 4/160/300
f 1/161/301 73/122/302 78/121/303 4/162/304
f 4/163/305 5/164/306 80/104/307 79/103/308
f 5/165/309 6/166/310 81/106/311 80/105/312
f 3/167/313 82/107/314 81/106/315 6/166/316
f 83/109/317 82/108/318 3/168/319 2/169/320
f 84/110/321 83/109/322 2/169/323 1/170/324
f 79/112/325 84/111/326 1/171/327 4/172/328
f 86/79/329 85/82/330 28/173/331 27/174/332
f 87/80/333 86/79/334 27/174/335 26/175/336
f 88/76/337 87/75/338 26/176/339 25/177/340
f 25/178/341 30/179/342 89/90/343 88/89/344
f 30/180/345 29/181/346 90/83/347 89/87/348
f 29/181/349 28/182/350 85/84/351 90/83/352
f 25/177/353 26/176/354 92/2/355 91/1/356
f 26/175/357 27/174/358 93/6/359 92/5/360
f 27/174/361 28/173/362 94/21/363 93/6/364
f 95/17/365 94/20/366 28/182/367 29/181/368
f 96/18/369 95/17/370 29/181/371 30/180/372
f 91/26/373 96/25/374 30/179/375 25/178/376
f 10/183/377 11/184/378 98/124/379 97/123/380
f 11/184/381 12/185/382 99/125/383 98/124/384
f 100/127/385 99/126/386 12/186/387 9/187/388
f 101/128/389 100/127/390 9/187/391 8/188/392
f 102/130/393 101/129/394 8/189/395 7/190/396
f 10/191/397 97/132/398 102/131/399 7/192/400
